<svg xmlns="http://www.w3.org/2000/svg" viewBox="0 0 112 182"><defs><style>.cls-1{fill:#fff;}.cls-2{fill:#cfd9da;stroke:#575656;stroke-linecap:round;stroke-miterlimit:10;stroke-width:5px;}.cls-3{fill:#838f92;}.cls-4{fill:#dfe5e7;}.cls-5{fill:#575656;}.cls-6{fill:#afbfc2;}.cls-7{fill:#f3a5ae;}.cls-8{fill:#11201c;}</style></defs><title>dog</title><g id="BACKGROUND"><rect class="cls-1" x="-32" y="-18" width="500" height="500"/></g><g id="OBJECTS"><path class="cls-2" d="M84.31,49.3h0a21.76,21.76,0,0,0,4.39-27L79.06,5.4,68.19,17.07a22.68,22.68,0,0,0-5.62,20l2.19,10.64Z"/><path class="cls-2" d="M17.68,49.3h0a21.76,21.76,0,0,1-4.4-27L22.93,5.4,33.79,17.07a22.65,22.65,0,0,1,5.62,20L37.22,47.72Z"/><path class="cls-3" d="M81.52,163.57S103,168,111.62,143h-5.4s6.8-11,5.4-28h-5.4a33.66,33.66,0,0,0-6.53-30.82S90.52,98,88.37,110H74.22Z"/><path class="cls-4" d="M58.54,105.06c-28-1.79-22.41,24-22.41,24v50.72l35.47.29c18.14,0,21.71-5.94,21.71-18.5C93.31,144.57,86.59,106.85,58.54,105.06Z"/><path class="cls-5" d="M16.88,120.92V176h29V131.4c.6-2.78,2.32-5.59,5.49-5.59a5.59,5.59,0,0,1,5.51,5.66v39.32c0,1.92.1,3.64.21,5.21H86.88V114.43A32.21,32.21,0,0,0,81,96.75l23.43-17.91s-16.34-39.7-18.32-42.9A23,23,0,0,0,66.56,25H36A23,23,0,0,0,16,36.76C14.24,39.83-.15,82-.15,82L24.16,98A39.4,39.4,0,0,0,16.88,120.92Z"/><path class="cls-4" d="M98.22,77.31s-14.48-35.42-15.93-38A18,18,0,0,0,66.56,30L51,59,36,30A18.08,18.08,0,0,0,19.67,40.52C18.62,42.81,5.94,80.06,5.94,80.06L31.56,96.9c-10.08,18.41,19.81,23.91,19.81,23.91s35-3.71,22.62-25Z"/><path class="cls-6" d="M43.33,182.41a3.34,3.34,0,0,0,3.23-4.28,16,16,0,0,0-30.73,0,3.34,3.34,0,0,0,3.22,4.28Z"/><path class="cls-6" d="M84.76,182.41A3.34,3.34,0,0,0,88,178.13a16,16,0,0,0-30.74,0,3.34,3.34,0,0,0,3.23,4.28Z"/><path class="cls-7" d="M43.83,82.06l.22,17a7.67,7.67,0,0,0,7.82,7.55h.22a7.69,7.69,0,0,0,7.45-7.93l-.2-16.67Z"/><path class="cls-8" d="M66.19,57.11c0,2.85,1.44,5.16,3.22,5.16s3.21-2.31,3.21-5.16S71.18,52,69.41,52,66.19,54.26,66.19,57.11Z"/><rect class="cls-6" x="37.18" y="66.47" width="29.01" height="29.01" rx="11"/><path class="cls-8" d="M29.41,57.93c0,2.85,1.44,5.16,3.22,5.16s3.21-2.31,3.21-5.16-1.44-5.17-3.21-5.17S29.41,55.07,29.41,57.93Z"/><path class="cls-8" d="M52,73.24h.5c.06,0-.5,0,.5,0h0c5,.13,10.1,3.54,6.74,9.32-6.2,10.66-11.53,5.32-15.42,0S46,73.37,52,73.24Z"/></g></svg>