<?xml version="1.0" encoding="utf-8"?>
<!-- Generator: Adobe Illustrator 23.0.1, SVG Export Plug-In . SVG Version: 6.00 Build 0)  -->
<svg version="1.1" id="Layer_1" xmlns="http://www.w3.org/2000/svg" xmlns:xlink="http://www.w3.org/1999/xlink" x="0px" y="0px"
	 viewBox="0 0 141.7 141.7" style="enable-background:new 0 0 141.7 141.7;" xml:space="preserve">
<style type="text/css">
	.st0{clip-path:url(#SVGID_2_);}
	.st1{enable-background:new    ;}
	.st2{clip-path:url(#SVGID_4_);enable-background:new    ;}
	.st3{fill:#640105;}
	.st4{fill:#610104;}
	.st5{fill:#5E0104;}
	.st6{fill:#5B0104;}
	.st7{fill:#580104;}
	.st8{fill:#550104;}
	.st9{fill:#520104;}
	.st10{fill:#4F0104;}
	.st11{clip-path:url(#SVGID_6_);enable-background:new    ;}
	.st12{clip-path:url(#SVGID_8_);enable-background:new    ;}
	.st13{clip-path:url(#SVGID_10_);enable-background:new    ;}
	.st14{fill:#670105;}
	.st15{clip-path:url(#SVGID_12_);enable-background:new    ;}
	.st16{clip-path:url(#SVGID_14_);enable-background:new    ;}
	.st17{clip-path:url(#SVGID_16_);enable-background:new    ;}
	.st18{clip-path:url(#SVGID_18_);enable-background:new    ;}
	.st19{clip-path:url(#SVGID_20_);enable-background:new    ;}
	.st20{fill:#8C0206;}
	.st21{fill:#890206;}
	.st22{fill:#860206;}
	.st23{fill:#830206;}
	.st24{fill:#800206;}
	.st25{fill:#7D0206;}
	.st26{fill:#7A0206;}
	.st27{fill:#770205;}
	.st28{fill:#740205;}
	.st29{fill:#700105;}
	.st30{fill:#6D0105;}
	.st31{fill:#6A0105;}
	.st32{fill:#8F0207;}
	.st33{fill:#920207;}
	.st34{fill:#950207;}
	.st35{fill:#980207;}
	.st36{fill:#A42025;}
	.st37{fill:#A92D31;}
	.st38{fill:#AD373B;}
	.st39{fill:#B13F43;}
	.st40{fill:#B4464A;}
	.st41{fill:#B64C50;}
	.st42{fill:#B95256;}
	.st43{fill:#BB585B;}
	.st44{fill:#BD5D60;}
	.st45{fill:#BF6265;}
	.st46{fill:#C1676A;}
	.st47{fill:#C36B6E;}
	.st48{fill:#C56F72;}
	.st49{fill:#7F0206;}
	.st50{clip-path:url(#SVGID_22_);enable-background:new    ;}
</style>
<title>krestik_2</title>
<g>
	<g>
		<defs>
			<path id="SVGID_1_" d="M31.2,130.2c-5-3.4-9.6-7.4-13.6-12l0,0C21.6,122.8,26.2,126.8,31.2,130.2"/>
		</defs>
		<clipPath id="SVGID_2_">
			<use xlink:href="#SVGID_1_"  style="overflow:visible;"/>
		</clipPath>
		<g class="st0">
			
				<image style="overflow:visible;enable-background:new    ;" width="32" height="28" xlink:href="A5E49224.png"  transform="matrix(0.4725 0 0 0.4725 16.815 117.6)">
			</image>
		</g>
	</g>
</g>
<g>
	<g>
		<g class="st1">
			<g class="st1">
				<defs>
					<path id="SVGID_3_" class="st1" d="M60.2,21.2c-1,0.3-2.3,0.5-3.3,0.8c-1.3,0.4-3,1-4.2,1.4c-3.3,1.3-5.6,2.7-6.9,3.4
						c-2,1.1-4.1,2.6-6.2,4.4c-1.6,1.3-3.6,3.3-5,4.8c0,0-2.5,2.6-4.8,6.2c-0.7,1.1-1.6,2.5-2.2,3.6c-0.5,1-1.2,2.3-1.7,3.3
						c-0.6,1.1-1.2,2.7-1.6,3.9c-0.4,1.2-0.9,2.7-1.2,3.9c-0.3,1.1-0.7,2.7-0.9,3.8c-0.2,1.2-0.5,2.8-0.6,4.1
						c-0.1,1.2-0.2,2.9-0.3,4.1c-0.1,1.8,0,4.1,0.2,5.9c0.3,2.9,0.5,4.8,1.4,8.2c1,3.8,2.3,6.9,2.6,7.7c1,2.2,3.3,7.4,8.3,13.3
						c2.6,3,4.9,4.9,5.7,5.6c3.2,2.7,6.2,4.5,6.3,4.5c1.7,1,3.7,2.2,6.9,3.5c3.1,1.3,5.7,2,7.4,2.4c7.6,1.8,13.1,1.4,15.7,1.2
						c-0.1,0-0.1,0-0.2,0c-27.7,2.4-52.3-18.3-54.8-46.2C18.6,49.5,35.8,26.6,60.2,21.2z"/>
				</defs>
				<clipPath id="SVGID_4_">
					<use xlink:href="#SVGID_3_"  style="overflow:visible;"/>
				</clipPath>
				<g class="st2">
					<path class="st3" d="M60.2,21.2c-9.3,2.4-16.8,5.7-25.6,14.9C27.6,43.4,23.3,54,22.2,60.9c-0.6,4.1-2.6,16.4,3.3,30
						c5.4,12.3,13.8,19.4,20,23.2c9.2,5.7,19.3,8.1,30.3,7.3c-0.1,0-0.1,0-0.2,0c-27.7,2.4-52.3-18.3-54.8-46.2
						C18.6,49.5,35.8,26.6,60.2,21.2"/>
					<path class="st3" d="M75.6,121.3c-12.4,1.1-24.2-2.5-33.6-9.2c-0.6-0.5-1.4-1.1-2-1.6c-7-6.3-12.3-12.6-17-24.4
						c-1.1-3.5-1.9-7.2-2.2-11c-2.3-25.7,14.9-48.6,39.3-54c-1,0.3-2.3,0.6-3.3,0.8c-1.3,0.4-2.9,1-4.2,1.4l-3.1,1.3
						c-1.2,0.6-2.7,1.4-3.8,2L43,28.7c-1,0.8-2.4,1.8-3.4,2.6L37,33.6c-0.9,0.9-2.1,2.1-2.9,3l-2.3,2.8c-0.7,1-1.7,2.3-2.4,3.4
						l-1.9,3.2c-0.5,1.1-1.3,2.5-1.8,3.7l-1.4,3.5c-0.4,1.2-0.9,2.7-1.2,3.9l-0.9,3.8c-0.2,1.2-0.5,2.8-0.6,4.1L21.3,69
						c0,1.8,0.1,4.1,0.2,5.9l0.5,4.2c0.3,1.2,0.6,2.8,0.9,4.1l1.2,3.9c0.4,1.1,1,2.7,1.5,3.8l1.7,3.6c0.6,1,1.4,2.4,2,3.5l2.2,3.2
						c0.8,0.9,1.7,2.2,2.5,3.1l2.6,2.8c0.9,0.8,2.1,1.9,3,2.7l2.9,2.3c1,0.7,2.3,1.6,3.4,2.3L49,116c1.1,0.5,2.6,1.3,3.8,1.8L56,119
						c1.2,0.4,2.9,0.9,4.1,1.2l3.4,0.7c1.3,0.2,3.1,0.4,4.4,0.5l3.4,0.1c1.4,0,3.2-0.1,4.6-0.2C75.8,121.3,75.7,121.3,75.6,121.3"/>
					<path class="st4" d="M75.6,121.3c-9.5,0.8-18.7-1.1-26.7-5.1c-0.4-0.2-0.8-0.5-1.2-0.7c-14.4-9-22-19.8-26.4-37.1
						c-0.2-1.1-0.3-2.1-0.4-3.2c-2.3-25.7,14.9-48.6,39.3-54c-1,0.3-2.3,0.6-3.3,0.8c-1.3,0.4-2.9,1-4.2,1.4l-3.1,1.3
						c-1.2,0.6-2.7,1.4-3.8,2L43,28.7c-1,0.8-2.4,1.8-3.4,2.6L37,33.6c-0.9,0.9-2.1,2.1-2.9,3l-2.3,2.8c-0.7,1-1.7,2.3-2.4,3.4
						l-1.9,3.2c-0.5,1.1-1.3,2.5-1.8,3.7l-1.4,3.5c-0.4,1.2-0.9,2.7-1.2,3.9l-0.9,3.8c-0.2,1.2-0.5,2.8-0.6,4.1L21.3,69
						c0,1.8,0.1,4.1,0.2,5.9l0.5,4.2c0.3,1.2,0.6,2.8,0.9,4.1l1.2,3.9c0.4,1.1,1,2.7,1.5,3.8l1.7,3.6c0.6,1,1.4,2.4,2,3.5l2.2,3.2
						c0.8,0.9,1.7,2.2,2.5,3.1l2.6,2.8c0.9,0.8,2.1,1.9,3,2.7l2.9,2.3c1,0.7,2.3,1.6,3.4,2.3L49,116c1.1,0.5,2.6,1.3,3.8,1.8L56,119
						c1.2,0.4,2.9,0.9,4.1,1.2l3.4,0.7c1.3,0.2,3.1,0.4,4.4,0.5l3.4,0.1c1.4,0,3.2-0.1,4.6-0.2C75.8,121.3,75.7,121.3,75.6,121.3"/>
					<g>
						<path class="st5" d="M25.1,89.7C23.3,85,22,81,20.7,71.9c-0.6-24.3,16.2-45.5,39.5-50.7c-1,0.3-2.3,0.6-3.3,0.8
							c-1.3,0.4-2.9,1-4.2,1.4l-3.1,1.3c-1.2,0.6-2.7,1.4-3.8,2L43,28.7c-1,0.8-2.4,1.8-3.4,2.6L37,33.6c-0.9,0.9-2.1,2.1-2.9,3
							l-2.3,2.8c-0.7,1-1.7,2.3-2.4,3.4l-1.9,3.2c-0.5,1.1-1.3,2.5-1.8,3.7l-1.4,3.5c-0.4,1.2-0.9,2.7-1.2,3.9l-0.9,3.8
							c-0.2,1.2-0.5,2.8-0.6,4.1L21.3,69c0,1.8,0.1,4.1,0.2,5.9l0.5,4.2c0.3,1.2,0.6,2.8,0.9,4.1l1.2,3.9l1.2,3.3L25.1,89.7"/>
						<path class="st5" d="M75.6,121.3c-7.3,0.6-14.3-0.3-20.8-2.6c0,0,0,0,0,0c-1.9-0.8-5.5-2.4-9.5-4.9c1.1,0.7,2.6,1.5,3.7,2.1
							c1.1,0.5,2.6,1.3,3.8,1.8L56,119c1.2,0.4,2.9,0.9,4.1,1.2l3.4,0.7c1.3,0.2,3.1,0.4,4.4,0.5l3.4,0.1c1.4,0,3.2-0.1,4.6-0.2
							C75.8,121.3,75.7,121.3,75.6,121.3"/>
					</g>
					<g>
						<path class="st6" d="M22.1,79.4c-0.6-3.9-0.9-6.3-1.2-13.4c2-21.8,17.9-40.1,39.3-44.8c-1,0.3-2.3,0.6-3.3,0.8
							c-1.3,0.4-2.9,1-4.2,1.4l-3.1,1.3c-1.2,0.6-2.7,1.4-3.8,2L43,28.7c-1,0.8-2.4,1.8-3.4,2.6L37,33.6c-0.9,0.9-2.1,2.1-2.9,3
							l-2.3,2.8c-0.7,1-1.7,2.3-2.4,3.4l-1.9,3.2c-0.5,1.1-1.3,2.5-1.8,3.7l-1.4,3.5c-0.4,1.2-0.9,2.7-1.2,3.9l-0.9,3.8
							c-0.2,1.2-0.5,2.8-0.6,4.1L21.3,69c0,1.8,0.1,4.1,0.2,5.9l0.5,4.2l0.2,0.9L22.1,79.4"/>
						<path class="st6" d="M75.6,121.3c-5.2,0.5-10.3,0.1-15.2-1c-0.3-0.1-0.8-0.2-1.1-0.3c-2.1-0.7-2.8-0.9-4.6-1.5l3.3,1.1
							l2.1,0.6l3.4,0.7c1.3,0.2,3.1,0.4,4.4,0.5l3.4,0.1c1.4,0,3.2-0.1,4.6-0.2C75.8,121.3,75.7,121.3,75.6,121.3"/>
					</g>
					<g>
						<path class="st7" d="M21.3,71.2c0-3.6,0-3.7,0.4-10.8c4-19.3,18.9-34.9,38.5-39.2c-1,0.3-2.3,0.6-3.3,0.8
							c-1.3,0.4-2.9,1-4.2,1.4l-3.1,1.3c-1.2,0.6-2.7,1.4-3.8,2L43,28.7c-1,0.8-2.4,1.8-3.4,2.6L37,33.6c-0.9,0.9-2.1,2.1-2.9,3
							l-2.3,2.8c-0.7,1-1.7,2.3-2.4,3.4l-1.9,3.2c-0.5,1.1-1.3,2.5-1.8,3.7l-1.4,3.5c-0.4,1.2-0.9,2.7-1.2,3.9l-0.9,3.8
							c-0.2,1.2-0.5,2.8-0.6,4.1L21.3,69l0,2.4L21.3,71.2"/>
						<path class="st7" d="M75.6,121.3c-3.3,0.3-6.5,0.2-9.6-0.1c-0.1,0-0.2,0-0.2,0c-1.2-0.2-1.9-0.3-3.3-0.6l3.4,0.5l2,0.2
							l3.4,0.1c1.4,0,3.2-0.1,4.6-0.2C75.8,121.3,75.7,121.3,75.6,121.3"/>
					</g>
					<g>
						<path class="st8" d="M21.9,62.5c0.4-2.6,0.9-5.1,1.3-7.7c5.5-16.6,19.4-29.7,37-33.6c-1,0.3-2.3,0.6-3.3,0.8
							c-1.3,0.4-2.9,1-4.2,1.4l-3.1,1.3c-1.2,0.6-2.7,1.4-3.8,2L43,28.7c-1,0.8-2.4,1.8-3.4,2.6L37,33.6c-0.9,0.9-2.1,2.1-2.9,3
							l-2.3,2.8c-0.7,1-1.7,2.3-2.4,3.4l-1.9,3.2c-0.5,1.1-1.3,2.5-1.8,3.7l-1.4,3.5c-0.4,1.2-0.9,2.7-1.2,3.9l-0.9,3.8l-0.4,2.7
							L21.9,62.5"/>
						<path class="st8" d="M75.6,121.3c-1.3,0.1-2.6,0.2-3.8,0.2c-0.3,0-0.6,0-0.8,0c-0.4,0-0.7,0-1.1,0l3.4,0l2.5-0.2
							C75.8,121.3,75.7,121.3,75.6,121.3"/>
					</g>
					<path class="st9" d="M23.6,55.3c0.6-2.1,1.4-4.1,1.9-6.2c6.6-13.9,19.2-24.4,34.7-27.8c-1,0.3-2.3,0.6-3.3,0.8
						c-1.3,0.4-2.9,1-4.2,1.4l-3.1,1.3c-1.2,0.6-2.7,1.4-3.8,2L43,28.7c-1,0.8-2.4,1.8-3.4,2.6L37,33.6c-0.9,0.9-2.1,2.1-2.9,3
						l-2.3,2.8c-0.7,1-1.7,2.3-2.4,3.4l-1.9,3.2c-0.5,1.1-1.3,2.5-1.8,3.7l-1.4,3.5l-0.9,2.6L23.6,55.3"/>
					<path class="st10" d="M27.3,46.5c0.8-1.6,2-3.8,2-3.9c0.1-0.2,0.1-0.4,0.2-0.5c7.1-10.4,17.9-18.1,30.7-20.9
						c-1,0.3-2.3,0.6-3.3,0.8c-1.3,0.4-2.9,1-4.2,1.4l-3.1,1.3c-1.2,0.6-2.7,1.4-3.8,2L43,28.7c-1,0.8-2.4,1.8-3.4,2.6L37,33.6
						c-0.9,0.9-2.1,2.1-2.9,3l-2.3,2.8c-0.7,1-1.7,2.3-2.4,3.4l-1.9,3.2L27,47L27.3,46.5"/>
				</g>
			</g>
			<g class="st1">
				<defs>
					<path id="SVGID_5_" class="st1" d="M75.8,121.3c1.9-0.2,4.4-0.6,6.3-1c-2.1,0.5-4.3,0.8-6.5,1
						C75.7,121.3,75.8,121.3,75.8,121.3z"/>
				</defs>
				<clipPath id="SVGID_6_">
					<use xlink:href="#SVGID_5_"  style="overflow:visible;"/>
				</clipPath>
				<g class="st11">
					<path class="st3" d="M75.8,121.3c1.9-0.2,4.4-0.6,6.3-1c-2.1,0.5-4.3,0.8-6.5,1C75.7,121.3,75.8,121.3,75.8,121.3"/>
					<path class="st3" d="M75.6,121.3c0.1,0,0.1,0,0.2,0c1-0.1,2.4-0.3,3.4-0.4l2.9-0.5C80,120.8,77.8,121.1,75.6,121.3"/>
					<path class="st4" d="M75.6,121.3c0.1,0,0.1,0,0.2,0c1-0.1,2.4-0.3,3.4-0.4l2.9-0.5C80,120.8,77.8,121.1,75.6,121.3"/>
					<path class="st5" d="M75.6,121.3c0.1,0,0.1,0,0.2,0c1-0.1,2.4-0.3,3.4-0.4l2.9-0.5C80,120.8,77.8,121.1,75.6,121.3"/>
					<path class="st6" d="M75.6,121.3c0.1,0,0.1,0,0.2,0c1-0.1,2.4-0.3,3.4-0.4l2.9-0.5C80,120.8,77.8,121.1,75.6,121.3"/>
					<path class="st7" d="M75.6,121.3c0.1,0,0.1,0,0.2,0c1-0.1,2.4-0.3,3.4-0.4l2.9-0.5C80,120.8,77.8,121.1,75.6,121.3"/>
					<path class="st8" d="M75.6,121.3c0.1,0,0.1,0,0.2,0c1-0.1,2.4-0.3,3.4-0.4l2.9-0.5C80,120.8,77.8,121.1,75.6,121.3"/>
					<path class="st9" d="M78.2,121c-0.2,0-0.4,0.1-0.6,0.1c1-0.2,2.4-0.4,3.4-0.5l1.1-0.2C80.8,120.6,79.6,120.9,78.2,121"/>
				</g>
			</g>
			<g class="st1">
				<defs>
					<path id="SVGID_7_" class="st1" d="M55.9,1.7c2.9-0.6,6-1.1,9-1.4c0.1,0,0.1,0,0.2,0C62.3,0.6,58.6,1.2,55.9,1.7z"/>
				</defs>
				<clipPath id="SVGID_8_">
					<use xlink:href="#SVGID_7_"  style="overflow:visible;"/>
				</clipPath>
				<g class="st12">
					<path class="st3" d="M55.9,1.7c2.8-0.5,6.4-1.1,9.2-1.4c-0.1,0-0.1,0-0.2,0C61.8,0.6,58.8,1,55.9,1.7"/>
					<path class="st3" d="M64.9,0.3c-3.1,0.3-6.1,0.7-9,1.4c1.5-0.3,3.4-0.6,4.9-0.9l4.3-0.5C65,0.3,64.9,0.3,64.9,0.3"/>
					<path class="st4" d="M64.9,0.3c-3.1,0.3-6.1,0.7-9,1.4c1.5-0.3,3.4-0.6,4.9-0.9l4.3-0.5C65,0.3,64.9,0.3,64.9,0.3"/>
					<path class="st5" d="M64.9,0.3c-3.1,0.3-6.1,0.7-9,1.4c1.5-0.3,3.4-0.6,4.9-0.9l4.3-0.5C65,0.3,64.9,0.3,64.9,0.3"/>
					<path class="st6" d="M64.9,0.3c-3.1,0.3-6.1,0.7-9,1.4c1.5-0.3,3.4-0.6,4.9-0.9l4.3-0.5C65,0.3,64.9,0.3,64.9,0.3"/>
					<path class="st7" d="M64.9,0.3c-3.1,0.3-6.1,0.7-9,1.4c1.5-0.3,3.4-0.6,4.9-0.9l4.3-0.5C65,0.3,64.9,0.3,64.9,0.3"/>
					<path class="st8" d="M64.9,0.3c-3.1,0.3-6.1,0.7-9,1.4c1.5-0.3,3.4-0.6,4.9-0.9l4.3-0.5C65,0.3,64.9,0.3,64.9,0.3"/>
					<path class="st9" d="M61.2,0.7c-1.8,0.3-3.6,0.6-5.4,1c1.5-0.3,3.4-0.6,4.9-0.9l1.7-0.2C62.1,0.6,61.6,0.7,61.2,0.7"/>
				</g>
			</g>
			<g class="st1">
				<defs>
					<path id="SVGID_9_" class="st1" d="M59.6,21.4l0.6-0.1c-24.4,5.4-41.6,28.3-39.3,54c2.5,27.9,27,48.6,54.8,46.2l-0.6,0.1
						c-27.7,2.4-52.3-18.3-54.8-46.2C18,49.6,35.2,26.7,59.6,21.4z"/>
				</defs>
				<clipPath id="SVGID_10_">
					<use xlink:href="#SVGID_9_"  style="overflow:visible;"/>
				</clipPath>
				<g class="st13">
					<path class="st10" d="M59.6,21.4l0.6-0.1c-12.8,2.8-23.7,10.5-30.7,20.9l-0.6,0.1C35.9,31.9,46.8,24.2,59.6,21.4"/>
					<path class="st9" d="M28.8,42.3l0.6-0.1c-1.4,2.1-2.7,4.4-3.9,6.7L25,49C26.1,46.7,27.4,44.4,28.8,42.3"/>
					<path class="st8" d="M25,49l0.6-0.1c-0.9,1.9-1.7,3.9-2.4,5.9l-0.6,0.1C23.3,52.9,24.1,50.9,25,49"/>
					<path class="st7" d="M22.6,54.9l0.6-0.1c-0.6,1.8-1.1,3.7-1.5,5.6l-0.6,0.1C21.5,58.6,22,56.8,22.6,54.9"/>
					<path class="st6" d="M21.1,60.5l0.6-0.1c-0.4,1.8-0.7,3.7-0.8,5.6l-0.6,0.1C20.5,64.2,20.7,62.4,21.1,60.5"/>
					<path class="st5" d="M20.3,66.1l0.6-0.1c-0.2,1.9-0.2,3.9-0.2,5.9L20.1,72C20.1,70,20.1,68.1,20.3,66.1"/>
					<path class="st4" d="M20.1,72l0.6-0.1c0,1.1,0.1,2.2,0.2,3.3c0.1,1.1,0.2,2.2,0.4,3.2l-0.6,0.1c-0.2-1.1-0.3-2.1-0.4-3.2
						C20.2,74.2,20.1,73.1,20.1,72"/>
					<path class="st3" d="M20.7,78.5l0.6-0.1c0.4,2.7,1,5.2,1.8,7.7l-0.6,0.1C21.7,83.8,21.1,81.2,20.7,78.5"/>
					<path class="st14" d="M22.5,86.2l0.6-0.1c3.4,10.7,10.2,19.8,19,26.1l-0.6,0.1C32.7,106,25.9,97,22.5,86.2"/>
					<path class="st3" d="M41.5,112.3l0.6-0.1c2.2,1.5,4.4,2.9,6.8,4.1l-0.6,0.1C46,115.2,43.7,113.9,41.5,112.3"/>
					<path class="st4" d="M48.3,116.4l0.6-0.1c1.9,0.9,3.9,1.8,5.9,2.5l-0.6,0.1C52.2,118.2,50.2,117.4,48.3,116.4"/>
					<path class="st5" d="M54.2,118.9l0.6-0.1c1.8,0.6,3.7,1.2,5.6,1.6l-0.6,0.1C57.9,120.1,56.1,119.5,54.2,118.9"/>
					<path class="st6" d="M59.8,120.5l0.6-0.1c1.8,0.4,3.7,0.7,5.6,0.9l-0.6,0.1C63.5,121.2,61.7,120.9,59.8,120.5"/>
					<path class="st7" d="M65.4,121.4l0.6-0.1c1.9,0.2,3.8,0.3,5.8,0.3l-0.6,0.1C69.3,121.7,67.3,121.6,65.4,121.4"/>
					<path class="st8" d="M71.2,121.7l0.6-0.1c1.3,0,2.6-0.1,3.8-0.2l-0.6,0.1C73.8,121.6,72.5,121.6,71.2,121.7"/>
				</g>
			</g>
			<g class="st1">
				<defs>
					<path id="SVGID_11_" class="st1" d="M82.1,120.3l-0.6,0.1c-2.1,0.5-4.3,0.8-6.5,1l0.6-0.1C77.8,121.1,80,120.8,82.1,120.3z"/>
				</defs>
				<clipPath id="SVGID_12_">
					<use xlink:href="#SVGID_11_"  style="overflow:visible;"/>
				</clipPath>
				<g class="st15">
					<path class="st8" d="M75,121.5l0.6-0.1c0.9-0.1,1.7-0.2,2.6-0.3l-0.6,0.1C76.8,121.3,75.9,121.4,75,121.5"/>
					<path class="st9" d="M77.6,121.2l0.6-0.1c1.3-0.2,2.6-0.4,3.9-0.7l-0.6,0.1C80.2,120.8,78.9,121,77.6,121.2"/>
				</g>
			</g>
			<g class="st1">
				<defs>
					<path id="SVGID_13_" class="st1" d="M55.3,1.8l0.6-0.1c2.9-0.6,6-1.1,9-1.4l-0.6,0.1C61.2,0.7,58.2,1.2,55.3,1.8z"/>
				</defs>
				<clipPath id="SVGID_14_">
					<use xlink:href="#SVGID_13_"  style="overflow:visible;"/>
				</clipPath>
				<g class="st16">
					<path class="st9" d="M55.3,1.8l0.6-0.1c1.8-0.4,3.6-0.7,5.4-1l-0.6,0.1C58.9,1.1,57,1.4,55.3,1.8"/>
					<path class="st8" d="M60.7,0.9l0.6-0.1c1.2-0.2,2.4-0.3,3.6-0.4l-0.6,0.1C63.1,0.5,61.9,0.7,60.7,0.9"/>
				</g>
			</g>
			<g class="st1">
				<defs>
					<path id="SVGID_15_" class="st1" d="M65.1,0.3c-0.1,0-0.1,0-0.2,0c38.6-3.4,72.9,25.5,76.3,64.4c3.2,35.8-20.8,67.7-54.8,75.2
						c2.6-0.6,6-1.5,8.5-2.4c1.8-0.7,4.1-1.6,5.8-2.4c1.3-0.6,3.1-1.5,4.4-2.2c1.6-0.9,3.7-2.1,5.2-3.1c1.2-0.8,2.8-2,4-2.9
						c4.3-3.3,7.3-6.4,8.1-7.2c1.2-1.2,2.7-2.9,3.8-4.3c1-1.2,2.2-2.8,3.1-4.1c0.8-1.1,3.2-4.5,5.5-9.3c4.5-9.1,5.8-16.2,6.6-20.7
						c0.3-1.6,0.9-5.9,0.8-11.2c0-1.7-0.1-4-0.3-5.7c-0.2-1.7-0.5-4-0.7-5.7c-0.5-4-2.9-12.1-4.8-16.1c-2.4-5.1-3-6.3-5.2-9.8
						c-2-3.1-4.2-6-6.6-8.8c-2.4-2.8-5.1-5.3-7.9-7.7c-4.5-3.7-8.3-6-9.1-6.4c-2.3-1.3-5.4-3.1-10.1-5c-5.1-2-9-2.9-10.9-3.3
						c-1.5-0.3-3.4-0.7-4.9-0.9c-2-0.3-4.6-0.5-6.6-0.7C72.1-0.1,68.1,0.1,65.1,0.3z"/>
				</defs>
				<clipPath id="SVGID_16_">
					<use xlink:href="#SVGID_15_"  style="overflow:visible;"/>
				</clipPath>
				<g class="st17">
					<path class="st3" d="M65.1,0.3c7.8-0.4,24-1.2,42.5,9.7c18.4,10.9,25.7,26.1,28.8,32.6c4.3,9,7.5,25.2,5,38.7
						c-1.2,6.8-4.1,22.8-19,38.3c-14.1,14.7-30,18.7-36,20.2c34-7.5,58-39.4,54.8-75.2c-3.5-38.9-37.7-67.7-76.3-64.4
						C64.9,0.3,65,0.3,65.1,0.3"/>
					<path class="st3" d="M141.2,64.7c-0.5-5.3-1.5-10.4-3.1-15.3c-0.1-0.5-0.3-1.1-0.5-1.6c-1.8-5.5-7.4-22-26-34.6
						C98.6,3.7,82.2-1.2,64.9,0.3c1.6-0.1,3.7-0.2,5.3-0.3c2,0,4.6,0.1,6.6,0.2l5,0.6c1.9,0.3,4.4,0.8,6.2,1.2l4.9,1.4
						c1.7,0.6,4,1.4,5.7,2.1l4.6,2.1c1.5,0.8,3.6,1.9,5.1,2.8l4.3,2.9c1.4,1,3.2,2.4,4.5,3.5l3.9,3.5c1.2,1.2,2.7,2.8,3.8,4.1
						l3.4,4.1c0.9,1.4,2.3,3.2,3.1,4.6l2.7,4.7c0.7,1.5,1.7,3.5,2.4,5l2,5.2c0.5,1.6,1.2,3.7,1.6,5.4l1.2,5.5c0.2,1.7,0.6,4,0.7,5.7
						l0.3,5.7c-0.1,1.7-0.1,4-0.2,5.7l-0.6,5.5c-0.3,1.7-0.7,3.9-1.1,5.5l-1.4,5.2c-0.6,1.6-1.3,3.7-1.9,5.3l-2.2,4.7
						c-0.8,1.5-1.9,3.5-2.7,5l-2.8,4.3c-1.1,1.4-2.4,3.3-3.5,4.6l-3.3,3.7c-1.3,1.2-3,2.9-4.3,4.1l-3.8,3.1c-1.5,1.1-3.5,2.5-5,3.5
						l-4.2,2.5c-1.7,0.8-3.9,2-5.7,2.8l-4.5,1.8c-2.5,0.8-5.9,1.8-8.5,2.4C120.4,132.4,144.4,100.4,141.2,64.7"/>
					<path class="st4" d="M141.2,64.7c-0.1-1.5-0.3-3-0.5-4.5c-0.1-0.9-0.2-2-0.3-2.9c-3.6-21.8-17.5-40-38.2-49.9
						C91,1.8,78.2-0.8,64.9,0.3c1.6-0.1,3.7-0.2,5.3-0.3c2,0,4.6,0.1,6.6,0.2l5,0.6c1.9,0.3,4.4,0.8,6.2,1.2l4.9,1.4
						c1.7,0.6,4,1.4,5.7,2.1l4.6,2.1c1.5,0.8,3.6,1.9,5.1,2.8l4.3,2.9c1.4,1,3.2,2.4,4.5,3.5l3.9,3.5c1.2,1.2,2.7,2.8,3.8,4.1
						l3.4,4.1c0.9,1.4,2.3,3.2,3.1,4.6l2.7,4.7c0.7,1.5,1.7,3.5,2.4,5l2,5.2c0.5,1.6,1.2,3.7,1.6,5.4l1.2,5.5c0.2,1.7,0.6,4,0.7,5.7
						l0.3,5.7c-0.1,1.7-0.1,4-0.2,5.7l-0.6,5.5c-0.3,1.7-0.7,3.9-1.1,5.5l-1.4,5.2c-0.6,1.6-1.3,3.7-1.9,5.3l-2.2,4.7
						c-0.8,1.5-1.9,3.5-2.7,5l-2.8,4.3c-1.1,1.4-2.4,3.3-3.5,4.6l-3.3,3.7c-1.3,1.2-3,2.9-4.3,4.1l-3.8,3.1c-1.5,1.1-3.5,2.5-5,3.5
						l-4.2,2.5c-1.7,0.8-3.9,2-5.7,2.8l-4.5,1.8c-2.5,0.8-5.9,1.8-8.5,2.4C120.4,132.4,144.4,100.4,141.2,64.7"/>
					<g>
						<path class="st5" d="M108.9,10.8c-4.7-2.8-7.9-4.6-15-6.9c-9.1-3.2-18.9-4.5-29-3.6c1.6-0.1,3.7-0.2,5.3-0.3
							c2,0,4.6,0.1,6.6,0.2l5,0.6c1.9,0.3,4.4,0.8,6.2,1.2l4.9,1.4c1.7,0.6,4,1.4,5.7,2.1l4.6,2.1c1.5,0.8,3.6,1.9,5.1,2.8
							c0.2,0.1,0.6,0.3,0.8,0.5C109,10.9,108.9,10.8,108.9,10.8"/>
						<path class="st5" d="M141.5,69.3c0.1-5.9,0.1-13.9-4.8-25.9l1.9,5.2l1.4,4.7l1.2,5.5c0.2,1.7,0.6,4,0.7,5.7l0.3,5.7
							c-0.1,1.7-0.1,4-0.2,5.7l-0.6,5.5c-0.3,1.7-0.7,3.9-1.1,5.5l-1.4,5.2c-0.6,1.6-1.3,3.7-1.9,5.3l-2.2,4.7
							c-0.8,1.5-1.9,3.5-2.7,5l-2.8,4.3c-1.1,1.4-2.4,3.3-3.5,4.6l-3.3,3.7c-1.3,1.2-3,2.9-4.3,4.1l-3.8,3.1c-1.5,1.1-3.5,2.5-5,3.5
							l-4.2,2.5c-1.7,0.8-3.9,2-5.7,2.8l-4.5,1.8c-2.5,0.8-5.9,1.8-8.5,2.4C118.9,132.7,142.3,103.1,141.5,69.3"/>
					</g>
					<g>
						<path class="st6" d="M94.1,3.8c-3.4-1.1-4.5-1.4-8-2.1c-6.8-1.5-13.9-2-21.2-1.4c0.1,0,0.1,0,0.2,0c1.5-0.1,3.5-0.2,5.1-0.3
							c2,0,4.6,0.1,6.6,0.2l5,0.6c1.9,0.3,4.4,0.8,6.2,1.2l4.9,1.4l2.9,1L94.1,3.8"/>
						<path class="st6" d="M141.2,77.4c0.8-6.3,1.4-10.8-0.3-20l0.8,5.7l0.1,1.3l0.3,5.7c-0.1,1.7-0.1,4-0.2,5.7l-0.6,5.5
							c-0.3,1.7-0.7,3.9-1.1,5.5l-1.4,5.2c-0.6,1.6-1.3,3.7-1.9,5.3l-2.2,4.7c-0.8,1.5-1.9,3.5-2.7,5l-2.8,4.3
							c-1.1,1.4-2.4,3.3-3.5,4.6l-3.3,3.7c-1.3,1.2-3,2.9-4.3,4.1l-3.8,3.1c-1.5,1.1-3.5,2.5-5,3.5l-4.2,2.5c-1.7,0.8-3.9,2-5.7,2.8
							l-4.5,1.8c-2.5,0.8-5.9,1.8-8.5,2.4C116.3,133.3,138.4,107.8,141.2,77.4"/>
					</g>
					<g>
						<path class="st7" d="M83.6,1.1c-1.7-0.3-3.1-0.5-5.3-0.7C73.9,0,69.4-0.1,64.9,0.3c0.1,0,0.1,0,0.2,0c1.5-0.1,3.5-0.2,5.1-0.3
							c2,0,4.6,0.1,6.6,0.2l5,0.6l2.8,0.5L83.6,1.1"/>
						<path class="st7" d="M140.1,85.3c1.4-5.6,2.2-9,2.1-16l-0.1,5.7l-0.1,1l-0.6,5.5c-0.3,1.7-0.7,3.9-1.1,5.5l-1.4,5.2
							c-0.6,1.6-1.3,3.7-1.9,5.3l-2.2,4.7c-0.8,1.5-1.9,3.5-2.7,5l-2.8,4.3c-1.1,1.4-2.4,3.3-3.5,4.6l-3.3,3.7
							c-1.3,1.2-3,2.9-4.3,4.1l-3.8,3.1c-1.5,1.1-3.5,2.5-5,3.5l-4.2,2.5c-1.7,0.8-3.9,2-5.7,2.8l-4.5,1.8c-2.5,0.8-5.9,1.8-8.5,2.4
							C113.7,133.9,134.5,112.1,140.1,85.3"/>
					</g>
					<g>
						<path class="st8" d="M73.4,0c-1.5,0-1.5,0-3.2,0c-1.8,0-3.5,0.1-5.3,0.3c0.1,0,0.1,0,0.2,0c1.5-0.1,3.5-0.2,5.1-0.3l3.6,0
							L73.4,0"/>
						<path class="st8" d="M138,93.1c2.1-5.6,2.7-7.1,3.6-13.1l-0.9,5.4l-0.3,1.5l-1.4,5.2c-0.6,1.6-1.3,3.7-1.9,5.3l-2.2,4.7
							c-0.8,1.5-1.9,3.5-2.7,5l-2.8,4.3c-1.1,1.4-2.4,3.3-3.5,4.6l-3.3,3.7c-1.3,1.2-3,2.9-4.3,4.1l-3.8,3.1c-1.5,1.1-3.5,2.5-5,3.5
							l-4.2,2.5c-1.7,0.8-3.9,2-5.7,2.8l-4.5,1.8c-2.5,0.8-5.9,1.8-8.5,2.4C111,134.5,130.3,116.3,138,93.1"/>
					</g>
					<path class="st9" d="M134.7,101.3c2.5-4.7,3.1-5.9,4.5-10.4l-1.7,5l-0.6,1.4l-2.2,4.7c-0.8,1.5-1.9,3.5-2.7,5l-2.8,4.3
						c-1.1,1.4-2.4,3.3-3.5,4.6l-3.3,3.7c-1.3,1.2-3,2.9-4.3,4.1l-3.8,3.1c-1.5,1.1-3.5,2.5-5,3.5l-4.2,2.5c-1.7,0.8-3.9,2-5.7,2.8
						l-4.5,1.8c-2.5,0.8-5.9,1.8-8.5,2.4C108,135.1,125.6,120.5,134.7,101.3"/>
					<path class="st10" d="M129.3,110.7c2.5-3.4,3.2-4.3,5-7.7c-1.4,2.5-3.5,5.9-5,8.3c-1.1,1.4-2.4,3.3-3.5,4.6l-3.3,3.7
						c-1.3,1.2-3,2.9-4.3,4.1l-3.8,3.1c-1.5,1.1-3.5,2.5-5,3.5l-4.2,2.5c-1.7,0.8-3.9,2-5.7,2.8l-4.5,1.8c-2.5,0.8-5.9,1.8-8.5,2.4
						C104.3,135.9,119.4,125.2,129.3,110.7"/>
				</g>
			</g>
			<g class="st1">
				<defs>
					<path id="SVGID_17_" class="st1" d="M86.4,139.9l-0.6,0.1c34-7.5,58-39.4,54.8-75.2c-3.5-38.9-37.7-67.7-76.3-64.4l0.6-0.1
						c38.6-3.4,72.9,25.5,76.3,64.4C144.4,100.4,120.4,132.4,86.4,139.9z"/>
				</defs>
				<clipPath id="SVGID_18_">
					<use xlink:href="#SVGID_17_"  style="overflow:visible;"/>
				</clipPath>
				<g class="st18">
					<path class="st8" d="M64.3,0.4l0.6-0.1c1.8-0.2,3.6-0.2,5.4-0.3l-0.6,0.1C67.9,0.2,66.1,0.3,64.3,0.4"/>
					<path class="st7" d="M69.6,0.2L70.2,0c2.7,0,5.4,0.1,8.1,0.4l-0.6,0.1C75.1,0.3,72.4,0.1,69.6,0.2"/>
					<path class="st6" d="M77.7,0.6l0.6-0.1c2.6,0.3,5.2,0.7,7.8,1.3l-0.6,0.1C82.9,1.3,80.4,0.8,77.7,0.6"/>
					<path class="st5" d="M85.5,1.8l0.6-0.1c2.7,0.6,5.3,1.3,7.8,2.2L93.3,4C90.7,3.2,88.1,2.4,85.5,1.8"/>
					<path class="st4" d="M93.3,4l0.6-0.1c2.8,1,5.6,2.1,8.2,3.5l-0.6,0.1C98.9,6.2,96.1,5,93.3,4"/>
					<path class="st3" d="M101.5,7.5l0.6-0.1c3.3,1.6,6.5,3.6,9.5,5.7l-0.6,0.1C108,11.1,104.8,9.1,101.5,7.5"/>
					<path class="st14" d="M111,13.2l0.6-0.1c12.3,8.8,21.8,21.4,26.6,36.3l-0.6,0.1C132.8,34.6,123.3,21.9,111,13.2"/>
					<path class="st3" d="M137.6,49.5l0.6-0.1c1.1,3.5,2,7.1,2.5,10.8l-0.6,0.1C139.5,56.6,138.7,53,137.6,49.5"/>
					<path class="st4" d="M140.1,60.3l0.6-0.1c0.2,1.5,0.4,3,0.5,4.5c0.1,1.5,0.2,3.1,0.3,4.6l-0.6,0.1c0-1.5-0.1-3-0.3-4.6
						C140.5,63.3,140.3,61.8,140.1,60.3"/>
					<path class="st5" d="M140.9,69.4l0.6-0.1c0.1,2.8,0,5.5-0.3,8.2l-0.6,0.1C140.9,74.9,141,72.1,140.9,69.4"/>
					<path class="st6" d="M140.6,77.6l0.6-0.1c-0.2,2.6-0.6,5.3-1.2,7.8l-0.6,0.1C140,82.8,140.4,80.2,140.6,77.6"/>
					<path class="st7" d="M139.5,85.4l0.6-0.1c-0.5,2.7-1.2,5.3-2.1,7.8l-0.6,0.1C138.2,90.6,138.9,88,139.5,85.4"/>
					<path class="st8" d="M137.4,93.2l0.6-0.1c-0.9,2.8-2,5.6-3.3,8.2l-0.6,0.1C135.3,98.8,136.5,96,137.4,93.2"/>
					<path class="st9" d="M134.1,101.4l0.6-0.1c-1.6,3.3-3.4,6.4-5.4,9.4l-0.6,0.1C130.7,107.8,132.5,104.7,134.1,101.4"/>
					<path class="st10" d="M128.7,110.8l0.6-0.1c-9.8,14.5-25,25.2-42.9,29.2l-0.6,0.1C103.7,136.1,118.9,125.3,128.7,110.8"/>
				</g>
			</g>
			<g class="st1">
				<defs>
					<path id="SVGID_19_" class="st1" d="M81.5,120.5c1-0.3,2.3-0.5,3.3-0.8c1.3-0.4,3-1,4.2-1.4c3.3-1.3,5.6-2.7,6.9-3.4
						c2-1.1,4.1-2.6,6.2-4.4c1.6-1.3,3.6-3.3,5-4.8c0,0,2.5-2.6,4.8-6.2c0.7-1.1,1.6-2.5,2.2-3.6c0.5-1,1.2-2.3,1.7-3.3
						c0.6-1.1,1.2-2.7,1.6-3.9c0.4-1.2,0.9-2.7,1.2-3.9c0.3-1.1,0.7-2.7,0.9-3.8c0.2-1.2,0.5-2.8,0.6-4.1c0.1-1.2,0.2-2.9,0.3-4.1
						c0.1-1.8,0-4.1-0.2-5.9c-0.3-2.9-0.5-4.8-1.4-8.2c-1-3.8-2.3-6.9-2.6-7.7c-1-2.2-3.3-7.4-8.3-13.3c-2.6-3-4.9-4.9-5.7-5.6
						c-3.2-2.7-6.2-4.5-6.3-4.5c-1.9-1.1-4.4-2.4-6.4-3.3c-1.1-0.5-2.6-1-3.8-1.4c0,0-3.1-1.1-7.5-1.9c-4.4-0.7-7.7-0.7-7.8-0.7
						c-1.4,0-3.2,0-4.6,0.2c-1.9,0.2-4.4,0.6-6.3,1c-24.4,5.4-41.6,28.3-39.3,54c2.5,27.9,27,48.6,54.8,46.2c-1.3,0.3-2.2,2.3-2,4.5
						c-29.9,2.6-56.4-19.7-59.1-49.8c-2.7-30.1,19.5-56.7,49.4-59.3c29.9-2.6,56.4,19.7,59.1,49.8c2.7,30.1-19.5,56.6-49.4,59.3
						c-0.2-2.2,0.7-4.2,2-4.5C77.3,121.3,79.4,120.9,81.5,120.5z"/>
				</defs>
				<clipPath id="SVGID_20_">
					<use xlink:href="#SVGID_19_"  style="overflow:visible;"/>
				</clipPath>
				<g class="st19">
					<path class="st20" d="M81.5,120.5c9.3-2.4,16.8-5.7,25.6-14.9c5.9-6.2,11-16.4,12.3-24.8c0.6-4.1,2.6-16.4-3.3-30
						c-5.4-12.3-13.8-19.4-20-23.2c-16.4-10.1-31.6-7.3-36.6-6.3c-24.4,5.4-41.6,28.3-39.3,54c2.5,27.9,27,48.6,54.8,46.2
						c-1.3,0.3-2.2,2.3-2,4.5c-29.9,2.6-56.4-19.7-59.1-49.8c-2.7-30.1,19.5-56.7,49.4-59.3c29.9-2.6,56.4,19.7,59.1,49.8
						c2.7,30.1-19.5,56.6-49.4,59.3c-0.2-2.2,0.7-4.2,2-4.5C77.3,121.3,79.4,120.9,81.5,120.5"/>
					<path class="st20" d="M73,125.7c-3,3.2-56.3-5-58.4-52.3c-0.5-11.7,2.1-19.1,3.6-23.1C2.4,88.1,32.1,129,73,125.7
						c-29.9,2.9-56.4-19.4-59-49.5c-2.7-30.1,19.5-56.7,49.4-59.3c29.9-2.6,56.4,19.7,59.1,49.8c2.7,30.1-19.5,56.6-49.4,59.3
						c0.3-0.1,0.7-0.3,1-0.4L73,125.7c-0.1-2.1,0.8-3.9,2-4.2c2.2-0.2,4.4-0.5,6.5-1c1-0.3,2.3-0.6,3.3-0.8c1.3-0.4,2.9-1,4.2-1.4
						l3.1-1.3c1.2-0.6,2.7-1.4,3.8-2l2.9-1.8c1-0.8,2.4-1.8,3.4-2.6l2.6-2.3c0.9-0.9,2.1-2.1,2.9-3l2.3-2.8c0.7-1,1.7-2.3,2.4-3.4
						l1.9-3.2c0.5-1.1,1.3-2.5,1.8-3.7l1.4-3.5c0.4-1.2,0.9-2.7,1.2-3.9l0.9-3.8c0.2-1.2,0.5-2.8,0.6-4.1l0.3-4.1
						c0-1.8-0.1-4.1-0.2-5.9l-0.5-4.2c-0.3-1.2-0.6-2.8-0.9-4.1l-1.2-3.9c-0.4-1.1-1-2.7-1.5-3.8l-1.7-3.6c-0.6-1-1.4-2.5-2-3.5
						l-2.2-3.2c-0.8-0.9-1.7-2.2-2.5-3.1l-2.6-2.8c-0.9-0.8-2.1-1.9-3-2.7l-2.9-2.3c-1-0.7-2.3-1.6-3.4-2.3l-3.1-1.8
						c-1.1-0.5-2.6-1.3-3.8-1.8l-3.3-1.2c-1.2-0.4-2.9-0.9-4.1-1.2l-3.4-0.7c-1.3-0.2-3.1-0.4-4.4-0.5l-3.4-0.1
						c-1.4,0-3.2,0.1-4.6,0.2l-3.4,0.4l-2.9,0.5c-24.4,5.4-41.6,28.3-39.3,54c2.5,27.9,27,48.6,54.8,46.2
						C73.8,121.7,72.9,123.6,73,125.7"/>
					<path class="st21" d="M73,125.6c-2.9,3.1-55.9-5.7-58.3-52.2c-0.2-3.4-0.7-13.8,4.9-26.1C1.4,81.4,26.8,129.5,73,125.8
						c-29.9,2.7-56.4-19.6-59.1-49.7c-2.7-30.1,19.5-56.7,49.4-59.3c29.9-2.6,56.4,19.7,59.1,49.8c2.7,30.1-19.5,56.6-49.4,59.3
						c0.9-0.2,2.1-0.4,3-0.6L73,125.6c-0.1-2.1,0.8-3.9,2-4.1c2.2-0.2,4.4-0.5,6.5-1c1-0.3,2.3-0.6,3.3-0.8c1.3-0.4,2.9-1,4.2-1.4
						l3.1-1.3c1.2-0.6,2.7-1.4,3.8-2l2.9-1.8c1-0.8,2.4-1.8,3.4-2.6l2.6-2.3c0.9-0.9,2.1-2.1,2.9-3l2.3-2.8c0.7-1,1.7-2.3,2.4-3.4
						l1.9-3.2c0.5-1.1,1.3-2.5,1.8-3.7l1.4-3.5c0.4-1.2,0.9-2.7,1.2-3.9l0.9-3.8c0.2-1.2,0.5-2.8,0.6-4.1l0.3-4.1
						c0-1.8-0.1-4.1-0.2-5.9l-0.5-4.2c-0.3-1.2-0.6-2.8-0.9-4.1l-1.2-3.9c-0.4-1.1-1-2.7-1.5-3.8l-1.7-3.6c-0.6-1-1.4-2.5-2-3.5
						l-2.2-3.2c-0.8-0.9-1.7-2.2-2.5-3.1l-2.6-2.8c-0.9-0.8-2.1-1.9-3-2.7l-2.9-2.3c-1-0.7-2.3-1.6-3.4-2.3l-3.1-1.8
						c-1.1-0.5-2.6-1.3-3.8-1.8l-3.3-1.2c-1.2-0.4-2.9-0.9-4.1-1.2l-3.4-0.7c-1.3-0.2-3.1-0.4-4.4-0.5l-3.4-0.1
						c-1.4,0-3.2,0.1-4.6,0.2l-3.4,0.4l-2.9,0.5c-24.4,5.4-41.6,28.3-39.3,54c2.5,27.9,27,48.6,54.8,46.2
						C73.8,121.7,72.9,123.5,73,125.6"/>
					<path class="st22" d="M73,125.5c-0.1,0.1-22.3,2.6-40.7-15.2c-6.5-6.3-17.5-20-17.6-41.1c0-3,0.4-13.8,6.6-25.3
						C-1,81.9,28.9,129.4,73,125.9c-29.9,2.7-56.4-19.7-59.1-49.8c-2.7-30.1,19.5-56.7,49.4-59.3c29.9-2.6,56.4,19.7,59.1,49.8
						c2.7,30.1-19.5,56.6-49.4,59.3c1.1-0.2,2.6-0.5,3.8-0.7c0.4-0.1,0.9-0.2,1.2-0.3C76.5,125.2,74.1,124.4,73,125.5
						c0-2,0.8-3.8,2-4.1c2.2-0.2,4.4-0.5,6.5-1c1-0.3,2.3-0.6,3.3-0.8c1.3-0.4,2.9-1,4.2-1.4l3.1-1.3c1.2-0.6,2.7-1.4,3.8-2l2.9-1.8
						c1-0.8,2.4-1.8,3.4-2.6l2.6-2.3c0.9-0.9,2.1-2.1,2.9-3l2.3-2.8c0.7-1,1.7-2.3,2.4-3.4l1.9-3.2c0.5-1.1,1.3-2.5,1.8-3.7l1.4-3.5
						c0.4-1.2,0.9-2.7,1.2-3.9l0.9-3.8c0.2-1.2,0.5-2.8,0.6-4.1l0.3-4.1c0-1.8-0.1-4.1-0.2-5.9l-0.5-4.2c-0.3-1.2-0.6-2.8-0.9-4.1
						l-1.2-3.9c-0.4-1.1-1-2.7-1.5-3.8l-1.7-3.6c-0.6-1-1.4-2.5-2-3.5l-2.2-3.2c-0.8-0.9-1.7-2.2-2.5-3.1l-2.6-2.8
						c-0.9-0.8-2.1-1.9-3-2.7l-2.9-2.3c-1-0.7-2.3-1.6-3.4-2.3l-3.1-1.8c-1.1-0.5-2.6-1.3-3.8-1.8l-3.3-1.2
						c-1.2-0.4-2.9-0.9-4.1-1.2l-3.4-0.7c-1.3-0.2-3.1-0.4-4.4-0.5l-3.4-0.1c-1.4,0-3.2,0.1-4.6,0.2l-3.4,0.4l-2.9,0.5
						c-24.4,5.4-41.6,28.3-39.3,54c2.5,27.9,27,48.6,54.8,46.2C73.8,121.7,73,123.5,73,125.5"/>
					<path class="st23" d="M73,125.5c-3,3.2-56.5-5.8-58.1-53.4C13.2,23.5,69-1.5,105.3,31.5c13,11.8,22.5,34.3,14.4,57.8
						c-6.9,20.1-25.2,34.7-45.5,36.1C73.8,125.4,73.3,125.2,73,125.5c0-2,0.8-3.7,2-4c2.2-0.2,4.4-0.5,6.5-1c1-0.3,2.3-0.6,3.3-0.8
						c1.3-0.4,2.9-1,4.2-1.4l3.1-1.3c1.2-0.6,2.7-1.4,3.8-2l2.9-1.8c1-0.8,2.4-1.8,3.4-2.6l2.6-2.3c0.9-0.9,2.1-2.1,2.9-3l2.3-2.8
						c0.7-1,1.7-2.3,2.4-3.4l1.9-3.2c0.5-1.1,1.3-2.5,1.8-3.7l1.4-3.5c0.4-1.2,0.9-2.7,1.2-3.9l0.9-3.8c0.2-1.2,0.5-2.8,0.6-4.1
						l0.3-4.1c0-1.8-0.1-4.1-0.2-5.9l-0.5-4.2c-0.3-1.2-0.6-2.8-0.9-4.1l-1.2-3.9c-0.4-1.1-1-2.7-1.5-3.8l-1.7-3.6
						c-0.6-1-1.4-2.5-2-3.5l-2.2-3.2c-0.8-0.9-1.7-2.2-2.5-3.1l-2.6-2.8c-0.9-0.8-2.1-1.9-3-2.7l-2.9-2.3c-1-0.7-2.3-1.6-3.4-2.3
						l-3.1-1.8c-1.1-0.5-2.6-1.3-3.8-1.8l-3.3-1.2c-1.2-0.4-2.9-0.9-4.1-1.2l-3.4-0.7c-1.3-0.2-3.1-0.4-4.4-0.5l-3.4-0.1
						c-1.4,0-3.2,0.1-4.6,0.2l-3.4,0.4l-2.9,0.5c-24.4,5.4-41.6,28.3-39.3,54c2.5,27.9,27,48.6,54.8,46.2
						C73.8,121.7,73,123.5,73,125.5"/>
					<path class="st24" d="M73,125.4c-2.9,2.9-57.3-5.2-58-56c-0.7-46.1,58-70.2,90.9-37.3c15.7,15.7,20.7,37.3,13.5,58
						c-6.9,19.4-24.9,33.6-44.9,35.2C74,125.3,73.3,125.1,73,125.4c0-2,0.8-3.7,2-3.9c2.2-0.2,4.4-0.5,6.5-1c1-0.3,2.3-0.6,3.3-0.8
						c1.3-0.4,2.9-1,4.2-1.4l3.1-1.3c1.2-0.6,2.7-1.4,3.8-2l2.9-1.8c1-0.8,2.4-1.8,3.4-2.6l2.6-2.3c0.9-0.9,2.1-2.1,2.9-3l2.3-2.8
						c0.7-1,1.7-2.3,2.4-3.4l1.9-3.2c0.5-1.1,1.3-2.5,1.8-3.7l1.4-3.5c0.4-1.2,0.9-2.7,1.2-3.9l0.9-3.8c0.2-1.2,0.5-2.8,0.6-4.1
						l0.3-4.1c0-1.8-0.1-4.1-0.2-5.9l-0.5-4.2c-0.3-1.2-0.6-2.8-0.9-4.1l-1.2-3.9c-0.4-1.1-1-2.7-1.5-3.8l-1.7-3.6
						c-0.6-1-1.4-2.5-2-3.5l-2.2-3.2c-0.8-0.9-1.7-2.2-2.5-3.1l-2.6-2.8c-0.9-0.8-2.1-1.9-3-2.7l-2.9-2.3c-1-0.7-2.3-1.6-3.4-2.3
						l-3.1-1.8c-1.1-0.5-2.6-1.3-3.8-1.8l-3.3-1.2c-1.2-0.4-2.9-0.9-4.1-1.2l-3.4-0.7c-1.3-0.2-3.1-0.4-4.4-0.5l-3.4-0.1
						c-1.4,0-3.2,0.1-4.6,0.2l-3.4,0.4l-2.9,0.5c-24.4,5.4-41.6,28.3-39.3,54c2.5,27.9,27,48.6,54.8,46.2
						C73.9,121.7,73,123.4,73,125.4"/>
					<path class="st25" d="M73,125.3c-0.1,0.1-22.2,2.4-40.1-15.3C21.3,98.5,14.8,83.3,15.1,68.1c1-46.3,57.8-68.8,90.7-36
						c15.7,15.7,20.7,37.3,13.5,57.9c-6.9,19.5-25,33.6-45.2,35.1C73.8,125.2,73.2,125.1,73,125.3c0-1.9,0.9-3.6,2-3.8
						c2.2-0.2,4.4-0.5,6.5-1c1-0.3,2.3-0.6,3.3-0.8c1.3-0.4,2.9-1,4.2-1.4l3.1-1.3c1.2-0.6,2.7-1.4,3.8-2l2.9-1.8
						c1-0.8,2.4-1.8,3.4-2.6l2.6-2.3c0.9-0.9,2.1-2.1,2.9-3l2.3-2.8c0.7-1,1.7-2.3,2.4-3.4l1.9-3.2c0.5-1.1,1.3-2.5,1.8-3.7l1.4-3.5
						c0.4-1.2,0.9-2.7,1.2-3.9l0.9-3.8c0.2-1.2,0.5-2.8,0.6-4.1l0.3-4.1c0-1.8-0.1-4.1-0.2-5.9l-0.5-4.2c-0.3-1.2-0.6-2.8-0.9-4.1
						l-1.2-3.9c-0.4-1.1-1-2.7-1.5-3.8l-1.7-3.6c-0.6-1-1.4-2.5-2-3.5l-2.2-3.2c-0.8-0.9-1.7-2.2-2.5-3.1l-2.6-2.8
						c-0.9-0.8-2.1-1.9-3-2.7l-2.9-2.3c-1-0.7-2.3-1.6-3.4-2.3l-3.1-1.8c-1.1-0.5-2.6-1.3-3.8-1.8l-3.3-1.2
						c-1.2-0.4-2.9-0.9-4.1-1.2l-3.4-0.7c-1.3-0.2-3.1-0.4-4.4-0.5l-3.4-0.1c-1.4,0-3.2,0.1-4.6,0.2l-3.4,0.4l-2.9,0.5
						c-24.4,5.4-41.6,28.3-39.3,54c2.5,27.9,27,48.6,54.8,46.2C73.9,121.7,73,123.4,73,125.3"/>
					<path class="st26" d="M73,125.2c-2.8,2.8-56.5-5.8-57.7-55.6c-1-42.2,52.5-72,89.9-38c13,11.8,22.4,34.2,14.4,57.7
						c-7,20.2-24.8,34.3-45.5,35.9C73.8,125.1,73.2,125,73,125.2c0-1.9,0.9-3.5,2-3.7c2.2-0.2,4.4-0.5,6.5-1c1-0.3,2.3-0.6,3.3-0.8
						c1.3-0.4,2.9-1,4.2-1.4l3.1-1.3c1.2-0.6,2.7-1.4,3.8-2l2.9-1.8c1-0.8,2.4-1.8,3.4-2.6l2.6-2.3c0.9-0.9,2.1-2.1,2.9-3l2.3-2.8
						c0.7-1,1.7-2.3,2.4-3.4l1.9-3.2c0.5-1.1,1.3-2.5,1.8-3.7l1.4-3.5c0.4-1.2,0.9-2.7,1.2-3.9l0.9-3.8c0.2-1.2,0.5-2.8,0.6-4.1
						l0.3-4.1c0-1.8-0.1-4.1-0.2-5.9l-0.5-4.2c-0.3-1.2-0.6-2.8-0.9-4.1l-1.2-3.9c-0.4-1.1-1-2.7-1.5-3.8l-1.7-3.6
						c-0.6-1-1.4-2.5-2-3.5l-2.2-3.2c-0.8-0.9-1.7-2.2-2.5-3.1l-2.6-2.8c-0.9-0.8-2.1-1.9-3-2.7l-2.9-2.3c-1-0.7-2.3-1.6-3.4-2.3
						l-3.1-1.8c-1.1-0.5-2.6-1.3-3.8-1.8l-3.3-1.2c-1.2-0.4-2.9-0.9-4.1-1.2l-3.4-0.7c-1.3-0.2-3.1-0.4-4.4-0.5l-3.4-0.1
						c-1.4,0-3.2,0.1-4.6,0.2l-3.4,0.4l-2.9,0.5c-24.4,5.4-41.6,28.3-39.3,54c2.5,27.9,27,48.6,54.8,46.2
						C73.9,121.7,73.1,123.3,73,125.2"/>
					<path class="st27" d="M73,125.1c-0.6,0.5-22.4,1.4-38.5-14.5c-16.9-16.8-19.2-33.8-19-42.5C16.4,21.9,73-0.6,105.8,32.2
						c15.7,15.7,20.7,37.3,13.4,57.9c-6.7,19-24.9,33.4-44.2,34.9C74.4,125,73.4,124.7,73,125.1c0.1-1.8,0.9-3.4,2-3.6
						c2.2-0.2,4.4-0.5,6.5-1c1-0.3,2.3-0.6,3.3-0.8c1.3-0.4,2.9-1,4.2-1.4l3.1-1.3c1.2-0.6,2.7-1.4,3.8-2l2.9-1.8
						c1-0.8,2.4-1.8,3.4-2.6l2.6-2.3c0.9-0.9,2.1-2.1,2.9-3l2.3-2.8c0.7-1,1.7-2.3,2.4-3.4l1.9-3.2c0.5-1.1,1.3-2.5,1.8-3.7l1.4-3.5
						c0.4-1.2,0.9-2.7,1.2-3.9l0.9-3.8c0.2-1.2,0.5-2.8,0.6-4.1l0.3-4.1c0-1.8-0.1-4.1-0.2-5.9l-0.5-4.2c-0.3-1.2-0.6-2.8-0.9-4.1
						l-1.2-3.9c-0.4-1.1-1-2.7-1.5-3.8l-1.7-3.6c-0.6-1-1.4-2.5-2-3.5l-2.2-3.2c-0.8-0.9-1.7-2.2-2.5-3.1l-2.6-2.8
						c-0.9-0.8-2.1-1.9-3-2.7l-2.9-2.3c-1-0.7-2.3-1.6-3.4-2.3l-3.1-1.8c-1.1-0.5-2.6-1.3-3.8-1.8l-3.3-1.2
						c-1.2-0.4-2.9-0.9-4.1-1.2l-3.4-0.7c-1.3-0.2-3.1-0.4-4.4-0.5l-3.4-0.1c-1.4,0-3.2,0.1-4.6,0.2l-3.4,0.4l-2.9,0.5
						c-24.4,5.4-41.6,28.3-39.3,54c2.5,27.9,27,48.6,54.8,46.2C73.9,121.7,73.1,123.3,73,125.1"/>
					<path class="st28" d="M73,125c-0.1,0.1-20.7,2.7-39.1-15.5c-4.3-4.2-18.2-19.8-18.2-41.4c0-45.9,57.3-68.7,90.1-35.9
						c15.7,15.6,20.7,37.3,13.4,57.8c-6.9,19.4-24.9,33.4-45,34.8C73.9,124.9,73.3,124.7,73,125c0.1-1.8,0.9-3.3,2-3.5
						c2.2-0.2,4.4-0.5,6.5-1c1-0.3,2.3-0.6,3.3-0.8c1.3-0.4,2.9-1,4.2-1.4l3.1-1.3c1.2-0.6,2.7-1.4,3.8-2l2.9-1.8
						c1-0.8,2.4-1.8,3.4-2.6l2.6-2.3c0.9-0.9,2.1-2.1,2.9-3l2.3-2.8c0.7-1,1.7-2.3,2.4-3.4l1.9-3.2c0.5-1.1,1.3-2.5,1.8-3.7l1.4-3.5
						c0.4-1.2,0.9-2.7,1.2-3.9l0.9-3.8c0.2-1.2,0.5-2.8,0.6-4.1l0.3-4.1c0-1.8-0.1-4.1-0.2-5.9l-0.5-4.2c-0.3-1.2-0.6-2.8-0.9-4.1
						l-1.2-3.9c-0.4-1.1-1-2.7-1.5-3.8l-1.7-3.6c-0.6-1-1.4-2.5-2-3.5l-2.2-3.2c-0.8-0.9-1.7-2.2-2.5-3.1l-2.6-2.8
						c-0.9-0.8-2.1-1.9-3-2.7l-2.9-2.3c-1-0.7-2.3-1.6-3.4-2.3l-3.1-1.8c-1.1-0.5-2.6-1.3-3.8-1.8l-3.3-1.2
						c-1.2-0.4-2.9-0.9-4.1-1.2l-3.4-0.7c-1.3-0.2-3.1-0.4-4.4-0.5l-3.4-0.1c-1.4,0-3.2,0.1-4.6,0.2l-3.4,0.4l-2.9,0.5
						c-24.4,5.4-41.6,28.3-39.3,54c2.5,27.9,27,48.6,54.8,46.2C73.9,121.7,73.1,123.2,73,125"/>
					<path class="st29" d="M73,124.9c-0.1,0.1-20.8,2.6-38.5-15.6C22.3,96.8,15.5,81.1,16,66.4c1.3-43.1,57.9-69.3,92.7-31.2
						c14.8,16.2,16.5,39.8,10.5,54.8c-12.2,30.6-37.9,34.4-45.5,34.8C73.5,124.8,73.2,124.7,73,124.9c0.1-1.7,0.9-3.2,2-3.4
						c2.2-0.2,4.4-0.5,6.5-1c1-0.3,2.3-0.6,3.3-0.8c1.3-0.4,2.9-1,4.2-1.4l3.1-1.3c1.2-0.6,2.7-1.4,3.8-2l2.9-1.8
						c1-0.8,2.4-1.8,3.4-2.6l2.6-2.3c0.9-0.9,2.1-2.1,2.9-3l2.3-2.8c0.7-1,1.7-2.3,2.4-3.4l1.9-3.2c0.5-1.1,1.3-2.5,1.8-3.7l1.4-3.5
						c0.4-1.2,0.9-2.7,1.2-3.9l0.9-3.8c0.2-1.2,0.5-2.8,0.6-4.1l0.3-4.1c0-1.8-0.1-4.1-0.2-5.9l-0.5-4.2c-0.3-1.2-0.6-2.8-0.9-4.1
						l-1.2-3.9c-0.4-1.1-1-2.7-1.5-3.8l-1.7-3.6c-0.6-1-1.4-2.5-2-3.5l-2.2-3.2c-0.8-0.9-1.7-2.2-2.5-3.1l-2.6-2.8
						c-0.9-0.8-2.1-1.9-3-2.7l-2.9-2.3c-1-0.7-2.3-1.6-3.4-2.3l-3.1-1.8c-1.1-0.5-2.6-1.3-3.8-1.8l-3.3-1.2
						c-1.2-0.4-2.9-0.9-4.1-1.2l-3.4-0.7c-1.3-0.2-3.1-0.4-4.4-0.5l-3.4-0.1c-1.4,0-3.2,0.1-4.6,0.2l-3.4,0.4l-2.9,0.5
						c-24.4,5.4-41.6,28.3-39.3,54c2.5,27.9,27,48.6,54.8,46.2C74,121.7,73.2,123.1,73,124.9"/>
					<path class="st30" d="M73,124.7c-0.1,0.1-20.3,2.4-37.6-15.4c-17.6-18.2-19.3-36.1-19.2-43c0.8-44.2,57.6-65.9,89.5-34.1
						c15.7,15.6,20.7,37.2,13.4,57.8c-6.9,19.6-25.2,33.5-45.5,34.7C73.5,124.7,73.2,124.6,73,124.7c0.2-1.7,1-3,2-3.3
						c2.2-0.2,4.4-0.5,6.5-1c1-0.3,2.3-0.6,3.3-0.8c1.3-0.4,2.9-1,4.2-1.4l3.1-1.3c1.2-0.6,2.7-1.4,3.8-2l2.9-1.8
						c1-0.8,2.4-1.8,3.4-2.6l2.6-2.3c0.9-0.9,2.1-2.1,2.9-3l2.3-2.8c0.7-1,1.7-2.3,2.4-3.4l1.9-3.2c0.5-1.1,1.3-2.5,1.8-3.7l1.4-3.5
						c0.4-1.2,0.9-2.7,1.2-3.9l0.9-3.8c0.2-1.2,0.5-2.8,0.6-4.1l0.3-4.1c0-1.8-0.1-4.1-0.2-5.9l-0.5-4.2c-0.3-1.2-0.6-2.8-0.9-4.1
						l-1.2-3.9c-0.4-1.1-1-2.7-1.5-3.8l-1.7-3.6c-0.6-1-1.4-2.5-2-3.5l-2.2-3.2c-0.8-0.9-1.7-2.2-2.5-3.1l-2.6-2.8
						c-0.9-0.8-2.1-1.9-3-2.7l-2.9-2.3c-1-0.7-2.3-1.6-3.4-2.3l-3.1-1.8c-1.1-0.5-2.6-1.3-3.8-1.8l-3.3-1.2
						c-1.2-0.4-2.9-0.9-4.1-1.2l-3.4-0.7c-1.3-0.2-3.1-0.4-4.4-0.5l-3.4-0.1c-1.4,0-3.2,0.1-4.6,0.2l-3.4,0.4l-2.9,0.5
						c-24.4,5.4-41.6,28.3-39.3,54c2.5,27.9,27,48.6,54.8,46.2C74,121.7,73.2,123.1,73,124.7"/>
					<path class="st31" d="M73.1,124.6c-0.1,0.1-20.6,2.5-38.3-16.9C22.3,94.1,15.9,78.3,16.8,63.1C19,22.5,75.3-1.3,108.7,35.3
						C123.4,51.4,125.1,75,119.1,90c-12.4,31.2-39.4,34.2-44.7,34.5C74,124.5,73.4,124.3,73.1,124.6c0.2-1.6,1-2.9,2-3.1
						c2.2-0.2,4.4-0.5,6.5-1c1-0.3,2.3-0.6,3.3-0.8c1.3-0.4,2.9-1,4.2-1.4l3.1-1.3c1.2-0.6,2.7-1.4,3.8-2l2.9-1.8
						c1-0.8,2.4-1.8,3.4-2.6l2.6-2.3c0.9-0.9,2.1-2.1,2.9-3l2.3-2.8c0.7-1,1.7-2.3,2.4-3.4l1.9-3.2c0.5-1.1,1.3-2.5,1.8-3.7l1.4-3.5
						c0.4-1.2,0.9-2.7,1.2-3.9l0.9-3.8c0.2-1.2,0.5-2.8,0.6-4.1l0.3-4.1c0-1.8-0.1-4.1-0.2-5.9l-0.5-4.2c-0.3-1.2-0.6-2.8-0.9-4.1
						l-1.2-3.9c-0.4-1.1-1-2.7-1.5-3.8l-1.7-3.6c-0.6-1-1.4-2.5-2-3.5l-2.2-3.2c-0.8-0.9-1.7-2.2-2.5-3.1l-2.6-2.8
						c-0.9-0.8-2.1-1.9-3-2.7l-2.9-2.3c-1-0.7-2.3-1.6-3.4-2.3l-3.1-1.8c-1.1-0.5-2.6-1.3-3.8-1.8l-3.3-1.2
						c-1.2-0.4-2.9-0.9-4.1-1.2l-3.4-0.7c-1.3-0.2-3.1-0.4-4.4-0.5l-3.4-0.1c-1.4,0-3.2,0.1-4.6,0.2l-3.4,0.4l-2.9,0.5
						c-24.4,5.4-41.6,28.3-39.3,54c2.5,27.9,27,48.6,54.8,46.2C74,121.7,73.2,123,73.1,124.6"/>
					<path class="st14" d="M73.1,124.4c-0.8,0.7-21.4,1.6-39.2-18.5C22.7,93.2,16,75.3,17.3,61.4C21.2,17.8,80.5,1.5,109.2,36
						c21.2,25.5,10.3,52.9,9.9,54c-12.3,30.2-37.1,33.9-44.4,34.3C74.2,124.3,73.4,124.1,73.1,124.4c0.2-1.5,1-2.7,2-2.9
						c2.2-0.2,4.4-0.5,6.5-1c1-0.3,2.3-0.6,3.3-0.8c1.3-0.4,2.9-1,4.2-1.4l3.1-1.3c1.2-0.6,2.7-1.4,3.8-2l2.9-1.8
						c1-0.8,2.4-1.8,3.4-2.6l2.6-2.3c0.9-0.9,2.1-2.1,2.9-3l2.3-2.8c0.7-1,1.7-2.3,2.4-3.4l1.9-3.2c0.5-1.1,1.3-2.5,1.8-3.7l1.4-3.5
						c0.4-1.2,0.9-2.7,1.2-3.9l0.9-3.8c0.2-1.2,0.5-2.8,0.6-4.1l0.3-4.1c0-1.8-0.1-4.1-0.2-5.9l-0.5-4.2c-0.3-1.2-0.6-2.8-0.9-4.1
						l-1.2-3.9c-0.4-1.1-1-2.7-1.5-3.8l-1.7-3.6c-0.6-1-1.4-2.5-2-3.5l-2.2-3.2c-0.8-0.9-1.7-2.2-2.5-3.1l-2.6-2.8
						c-0.9-0.8-2.1-1.9-3-2.7l-2.9-2.3c-1-0.7-2.3-1.6-3.4-2.3l-3.1-1.8c-1.1-0.5-2.6-1.3-3.8-1.8l-3.3-1.2
						c-1.2-0.4-2.9-0.9-4.1-1.2l-3.4-0.7c-1.3-0.2-3.1-0.4-4.4-0.5l-3.4-0.1c-1.4,0-3.2,0.1-4.6,0.2l-3.4,0.4l-2.9,0.5
						c-24.4,5.4-41.6,28.3-39.3,54c2.5,27.9,27,48.6,54.8,46.2C74.1,121.7,73.3,122.9,73.1,124.4"/>
					<path class="st3" d="M21.7,84.2C4,32.2,56.3,5,92.7,23c41.5,20.5,38.8,82.9-4.3,98.2c-3.8,1.3-8.5,2.7-15.3,3
						c0.3-1.4,1-2.5,1.9-2.7c2.2-0.2,4.4-0.5,6.5-1c1-0.3,2.3-0.6,3.3-0.8c1.3-0.4,2.9-1,4.2-1.4l3.1-1.3c1.2-0.6,2.7-1.4,3.8-2
						l2.9-1.8c1-0.8,2.4-1.8,3.4-2.6l2.6-2.3c0.9-0.9,2.1-2.1,2.9-3l2.3-2.8c0.7-1,1.7-2.3,2.4-3.4l1.9-3.2c0.5-1.1,1.3-2.5,1.8-3.7
						l1.4-3.5c0.4-1.2,0.9-2.7,1.2-3.9l0.9-3.8c0.2-1.2,0.5-2.8,0.6-4.1l0.3-4.1c0-1.8-0.1-4.1-0.2-5.9l-0.5-4.2
						c-0.3-1.2-0.6-2.8-0.9-4.1l-1.2-3.9c-0.4-1.1-1-2.7-1.5-3.8l-1.7-3.6c-0.6-1-1.4-2.5-2-3.5l-2.2-3.2c-0.8-0.9-1.7-2.2-2.5-3.1
						l-2.6-2.8c-0.9-0.8-2.1-1.9-3-2.7l-2.9-2.3c-1-0.7-2.3-1.6-3.4-2.3l-3.1-1.8c-1.1-0.5-2.6-1.3-3.8-1.8l-3.3-1.2
						c-1.2-0.4-2.9-0.9-4.1-1.2l-3.4-0.7c-1.3-0.2-3.1-0.4-4.4-0.5l-3.4-0.1c-1.4,0-3.2,0.1-4.6,0.2l-3.4,0.4l-2.9,0.5
						c-24.4,5.4-41.6,28.3-39.3,54c0.3,3.8,1.1,7.5,2.2,11C22.3,85.7,21.9,84.8,21.7,84.2"/>
					<path class="st4" d="M20.5,77.8C8.4,29.4,59.7,2.5,97.1,25.5c39.8,24.5,31,86.2-13.8,97c-4.8,1.2-8.7,1.3-10.1,1.3
						c0.3-1.3,1-2.2,1.9-2.4c2.2-0.2,4.4-0.5,6.5-1c1-0.3,2.3-0.6,3.3-0.8c1.3-0.4,2.9-1,4.2-1.4l3.1-1.3c1.2-0.6,2.7-1.4,3.8-2
						l2.9-1.8c1-0.8,2.4-1.8,3.4-2.6l2.6-2.3c0.9-0.9,2.1-2.1,2.9-3l2.3-2.8c0.7-1,1.7-2.3,2.4-3.4l1.9-3.2c0.5-1.1,1.3-2.5,1.8-3.7
						l1.4-3.5c0.4-1.2,0.9-2.7,1.2-3.9l0.9-3.8c0.2-1.2,0.5-2.8,0.6-4.1l0.3-4.1c0-1.8-0.1-4.1-0.2-5.9l-0.5-4.2
						c-0.3-1.2-0.6-2.8-0.9-4.1l-1.2-3.9c-0.4-1.1-1-2.7-1.5-3.8l-1.7-3.6c-0.6-1-1.4-2.5-2-3.5l-2.2-3.2c-0.8-0.9-1.7-2.2-2.5-3.1
						l-2.6-2.8c-0.9-0.8-2.1-1.9-3-2.7l-2.9-2.3c-1-0.7-2.3-1.6-3.4-2.3l-3.1-1.8c-1.1-0.5-2.6-1.3-3.8-1.8l-3.3-1.2
						c-1.2-0.4-2.9-0.9-4.1-1.2l-3.4-0.7c-1.3-0.2-3.1-0.4-4.4-0.5l-3.4-0.1c-1.4,0-3.2,0.1-4.6,0.2l-3.4,0.4l-2.9,0.5
						c-24.4,5.4-41.6,28.3-39.3,54c0.1,1.1,0.2,2.2,0.4,3.2C20.6,78.3,20.6,78,20.5,77.8"/>
					<path class="st5" d="M19.9,70.7c-6.2-47.3,47.2-67.8,81.3-42.2c37.1,27.9,22.4,89-22.9,94.7c-1.8,0.2-3.7,0.3-5,0.3
						c0.3-1.1,1-1.9,1.8-2c2.2-0.2,4.4-0.5,6.5-1c1-0.3,2.3-0.6,3.3-0.8c1.3-0.4,2.9-1,4.2-1.4l3.1-1.3c1.2-0.6,2.7-1.4,3.8-2
						l2.9-1.8c1-0.8,2.4-1.8,3.4-2.6l2.6-2.3c0.9-0.9,2.1-2.1,2.9-3l2.3-2.8c0.7-1,1.7-2.3,2.4-3.4l1.9-3.2c0.5-1.1,1.3-2.5,1.8-3.7
						l1.4-3.5c0.4-1.2,0.9-2.7,1.2-3.9l0.9-3.8c0.2-1.2,0.5-2.8,0.6-4.1l0.3-4.1c0-1.8-0.1-4.1-0.2-5.9l-0.5-4.2
						c-0.3-1.2-0.6-2.8-0.9-4.1l-1.2-3.9c-0.4-1.1-1-2.7-1.5-3.8l-1.7-3.6c-0.6-1-1.4-2.5-2-3.5l-2.2-3.2c-0.8-0.9-1.7-2.2-2.5-3.1
						l-2.6-2.8c-0.9-0.8-2.1-1.9-3-2.7l-2.9-2.3c-1-0.7-2.3-1.6-3.4-2.3l-3.1-1.8c-1.1-0.5-2.6-1.3-3.8-1.8l-3.3-1.2
						c-1.2-0.4-2.9-0.9-4.1-1.2l-3.4-0.7c-1.3-0.2-3.1-0.4-4.4-0.5l-3.4-0.1c-1.4,0-3.2,0.1-4.6,0.2l-3.4,0.4l-2.9,0.5
						C36.3,26.5,19.5,47.7,20.1,72c0,0,0,0,0,0C20,71.6,20,71.1,19.9,70.7"/>
					<path class="st6" d="M20.3,65C18.7,18.1,73.7,3.4,105,31.8c35.4,32.2,11.5,88.9-27.9,91.2c-1.1,0.1-2.5,0.1-3.6,0.1
						c0.4-0.8,0.9-1.4,1.6-1.6c2.2-0.2,4.4-0.5,6.5-1c1-0.3,2.3-0.6,3.3-0.8c1.3-0.4,2.9-1,4.2-1.4l3.1-1.3c1.2-0.6,2.7-1.4,3.8-2
						l2.9-1.8c1-0.8,2.4-1.8,3.4-2.6l2.6-2.3c0.9-0.9,2.1-2.1,2.9-3l2.3-2.8c0.7-1,1.7-2.3,2.4-3.4l1.9-3.2c0.5-1.1,1.3-2.5,1.8-3.7
						l1.4-3.5c0.4-1.2,0.9-2.7,1.2-3.9l0.9-3.8c0.2-1.2,0.5-2.8,0.6-4.1l0.3-4.1c0-1.8-0.1-4.1-0.2-5.9l-0.5-4.2
						c-0.3-1.2-0.6-2.8-0.9-4.1l-1.2-3.9c-0.4-1.1-1-2.7-1.5-3.8l-1.7-3.6c-0.6-1-1.4-2.5-2-3.5l-2.2-3.2c-0.8-0.9-1.7-2.2-2.5-3.1
						l-2.6-2.8c-0.9-0.8-2.1-1.9-3-2.7l-2.9-2.3c-1-0.7-2.3-1.6-3.4-2.3l-3.1-1.8c-1.1-0.5-2.6-1.3-3.8-1.8l-3.3-1.2
						c-1.2-0.4-2.9-0.9-4.1-1.2l-3.4-0.7c-1.3-0.2-3.1-0.4-4.4-0.5l-3.4-0.1c-1.4,0-3.2,0.1-4.6,0.2l-3.4,0.4l-2.9,0.5
						c-21.4,4.7-37.3,23-39.3,44.8c0,0,0,0,0,0C20.3,65.8,20.3,65.3,20.3,65"/>
					<path class="st7" d="M21.2,59.5c2.8-42.8,56.6-57.6,87.3-24c29.9,32.7,7.5,88.7-34.7,86.9c0.3-0.5,0.8-0.8,1.2-0.9
						c2.2-0.2,4.4-0.5,6.5-1c1-0.3,2.3-0.6,3.3-0.8c1.3-0.4,2.9-1,4.2-1.4l3.1-1.3c1.2-0.6,2.7-1.4,3.8-2l2.9-1.8
						c1-0.8,2.4-1.8,3.4-2.6l2.6-2.3c0.9-0.9,2.1-2.1,2.9-3l2.3-2.8c0.7-1,1.7-2.3,2.4-3.4l1.9-3.2c0.5-1.1,1.3-2.5,1.8-3.7l1.4-3.5
						c0.4-1.2,0.9-2.7,1.2-3.9l0.9-3.8c0.2-1.2,0.5-2.8,0.6-4.1l0.3-4.1c0-1.8-0.1-4.1-0.2-5.9l-0.5-4.2c-0.3-1.2-0.6-2.8-0.9-4.1
						l-1.2-3.9c-0.4-1.1-1-2.7-1.5-3.8l-1.7-3.6c-0.6-1-1.4-2.5-2-3.5l-2.2-3.2c-0.8-0.9-1.7-2.2-2.5-3.1l-2.6-2.8
						c-0.9-0.8-2.1-1.9-3-2.7l-2.9-2.3c-1-0.7-2.3-1.6-3.4-2.3l-3.1-1.8c-1.1-0.5-2.6-1.3-3.8-1.8l-3.3-1.2
						c-1.2-0.4-2.9-0.9-4.1-1.2l-3.4-0.7c-1.3-0.2-3.1-0.4-4.4-0.5l-3.4-0.1c-1.4,0-3.2,0.1-4.6,0.2l-3.4,0.4l-2.9,0.5
						C40,25.7,25.1,41.3,21.1,60.5c0,0,0,0,0,0C21.1,60.2,21.2,59.8,21.2,59.5"/>
					<path class="st8" d="M22.8,53.9C30.5,10,89.5,7.1,112.2,40.1c23.7,34.6,1.9,81.9-37.7,81.6c0.2-0.1,0.4-0.2,0.6-0.3
						c2.2-0.2,4.4-0.5,6.5-1c1-0.3,2.3-0.6,3.3-0.8c1.3-0.4,2.9-1,4.2-1.4l3.1-1.3c1.2-0.6,2.7-1.4,3.8-2l2.9-1.8
						c1-0.8,2.4-1.8,3.4-2.6l2.6-2.3c0.9-0.9,2.1-2.1,2.9-3l2.3-2.8c0.7-1,1.7-2.3,2.4-3.4l1.9-3.2c0.5-1.1,1.3-2.5,1.8-3.7l1.4-3.5
						c0.4-1.2,0.9-2.7,1.2-3.9l0.9-3.8c0.2-1.2,0.5-2.8,0.6-4.1l0.3-4.1c0-1.8-0.1-4.1-0.2-5.9l-0.5-4.2c-0.3-1.2-0.6-2.8-0.9-4.1
						l-1.2-3.9c-0.4-1.1-1-2.7-1.5-3.8l-1.7-3.6c-0.6-1-1.4-2.5-2-3.5l-2.2-3.2c-0.8-0.9-1.7-2.2-2.5-3.1l-2.6-2.8
						c-0.9-0.8-2.1-1.9-3-2.7l-2.9-2.3c-1-0.7-2.3-1.6-3.4-2.3l-3.1-1.8c-1.1-0.5-2.6-1.3-3.8-1.8l-3.3-1.2
						c-1.2-0.4-2.9-0.9-4.1-1.2l-3.4-0.7c-1.3-0.2-3.1-0.4-4.4-0.5l-3.4-0.1c-1.4,0-3.2,0.1-4.6,0.2l-3.4,0.4l-2.9,0.5
						c-17.6,3.9-31.5,16.9-37,33.6C22.7,54.6,22.7,54.2,22.8,53.9"/>
					<path class="st9" d="M25.3,48.1C38,6.3,95.7,9.9,114.8,44.5c15,27.1,6,71.3-37.2,76.7c1.3-0.2,2.6-0.4,3.9-0.7
						c1-0.3,2.3-0.6,3.3-0.8c1.3-0.4,2.9-1,4.2-1.4l3.1-1.3c1.2-0.6,2.7-1.4,3.8-2l2.9-1.8c1-0.8,2.4-1.8,3.4-2.6l2.6-2.3
						c0.9-0.9,2.1-2.1,2.9-3l2.3-2.8c0.7-1,1.7-2.3,2.4-3.4l1.9-3.2c0.5-1.1,1.3-2.5,1.8-3.7l1.4-3.5c0.4-1.2,0.9-2.7,1.2-3.9
						l0.9-3.8c0.2-1.2,0.5-2.8,0.6-4.1l0.3-4.1c0-1.8-0.1-4.1-0.2-5.9l-0.5-4.2c-0.3-1.2-0.6-2.8-0.9-4.1l-1.2-3.9
						c-0.4-1.1-1-2.7-1.5-3.8l-1.7-3.6c-0.6-1-1.4-2.5-2-3.5l-2.2-3.2c-0.8-0.9-1.7-2.2-2.5-3.1l-2.6-2.8c-0.9-0.8-2.1-1.9-3-2.7
						l-2.9-2.3c-1-0.7-2.3-1.6-3.4-2.3l-3.1-1.8c-1.1-0.5-2.6-1.3-3.8-1.8l-3.3-1.2c-1.2-0.4-2.9-0.9-4.1-1.2l-3.4-0.7
						c-1.3-0.2-3.1-0.4-4.4-0.5l-3.4-0.1c-1.4,0-3.2,0.1-4.6,0.2l-3.4,0.4l-2.9,0.5C44.1,24.8,31.5,35.3,25,49
						C25.1,48.8,25.2,48.4,25.3,48.1"/>
					<path class="st10" d="M29.3,41.4C49.1,1.7,106.6,15.8,119,53.9c5.6,17.1,5.8,52.9-33.1,65.4c1.9-0.7,4.3-1.7,6.1-2.4
						c1.2-0.6,2.7-1.4,3.8-2l2.9-1.8c1-0.8,2.4-1.8,3.4-2.6l2.6-2.3c0.9-0.9,2.1-2.1,2.9-3l2.3-2.8c0.7-1,1.7-2.3,2.4-3.4l1.9-3.2
						c0.5-1.1,1.3-2.5,1.8-3.7l1.4-3.5c0.4-1.2,0.9-2.7,1.2-3.9l0.9-3.8c0.2-1.2,0.5-2.8,0.6-4.1l0.3-4.1c0-1.8-0.1-4.1-0.2-5.9
						l-0.5-4.2c-0.3-1.2-0.6-2.8-0.9-4.1l-1.2-3.9c-0.4-1.1-1-2.7-1.5-3.8l-1.7-3.6c-0.6-1-1.4-2.5-2-3.5l-2.2-3.2
						c-0.8-0.9-1.7-2.2-2.5-3.1l-2.6-2.8c-0.9-0.8-2.1-1.9-3-2.7l-2.9-2.3c-1-0.7-2.3-1.6-3.4-2.3l-3.1-1.8
						c-1.1-0.5-2.6-1.3-3.8-1.8l-3.3-1.2c-1.2-0.4-2.9-0.9-4.1-1.2l-3.4-0.7c-1.3-0.2-3.1-0.4-4.4-0.5l-3.4-0.1
						c-1.4,0-3.2,0.1-4.6,0.2l-3.4,0.4l-2.9,0.5c-12.8,2.8-23.7,10.5-30.7,20.9c0,0,0,0,0,0C29,42,29.2,41.7,29.3,41.4"/>
					<path class="st3" d="M73.1,124.2c-0.1,0.1-13.3,2.3-31.7-11.9c9.4,6.7,21.2,10.3,33.6,9.2C74.1,121.7,73.4,122.8,73.1,124.2"/>
					<path class="st32" d="M62.4,125.7C27,121.5,5,86.3,17.1,53.2c-10,36,12.1,68.6,49.2,72.6C65.1,125.8,63.5,125.8,62.4,125.7"/>
					<path class="st4" d="M73.2,123.9c-0.1,0-9.4,1.4-24.9-7.5c8,4,17.2,5.9,26.7,5.1C74.2,121.7,73.5,122.6,73.2,123.9"/>
					<path class="st33" d="M62.4,125.6C28.6,121.9,6.6,88.7,16.2,56c-8,33.3,13.6,65.2,47.3,69.7C63.2,125.7,62.7,125.6,62.4,125.6"
						/>
					<path class="st34" d="M57.2,124.8c-26.3-5.3-49.1-31.5-41.7-66.1c-5.3,32.4,13.2,59.8,45.1,66.6
						C59.6,125.2,58.2,125,57.2,124.8"/>
					<path class="st35" d="M57.2,124.8C28,118.5,9.4,90.6,15,61.1c-4.1,29.9,13.9,56.7,42.9,63.7C57.7,124.8,57.4,124.8,57.2,124.8"
						/>
					<path class="st5" d="M73.3,123.5c0,0-5.9,0.9-19.1-4.6c6.5,2.3,13.5,3.2,20.8,2.6C74.3,121.6,73.6,122.4,73.3,123.5"/>
					<path class="st36" d="M52.2,123.5c-15.9-4.9-41.8-22.9-37.7-59.7c-1.9,29.1,13.3,51.7,40.8,60.5
						C54.4,124.1,53.1,123.8,52.2,123.5"/>
					<path class="st37" d="M52.3,123.5c-25.1-8-40.4-31.1-38-57.5c-1.4,32.1,19,50.8,38.6,57.7C52.7,123.6,52.4,123.5,52.3,123.5"/>
					<path class="st38" d="M47.4,121.7c-21.3-8.8-34.7-30.3-33.3-53.4c0.6,32.4,20.1,47.5,36.4,54.5
						C49.6,122.5,48.3,122.1,47.4,121.7"/>
					<path class="st6" d="M73.5,123c0,0-3.9,0.3-13.6-2.5c4.9,1.1,10,1.4,15.2,1C74.4,121.6,73.8,122.2,73.5,123"/>
					<path class="st39" d="M47.5,121.7c-20.8-8.9-33.3-28-33.4-51.1c1.5,31.9,22.1,45.9,34.2,51.4C48,121.9,47.7,121.8,47.5,121.7"
						/>
					<path class="st40" d="M42.9,119.5c-17.3-9.2-28.3-27-28.8-46.6c1,14.6,7.4,34.9,32,48.1C45.1,120.6,43.8,120,42.9,119.5"/>
					<path class="st41" d="M42.9,119.5c-11.8-6.4-26.3-19.3-28.7-44.2c1,7.5,4.1,30.3,29.7,44.8C43.6,119.9,43.2,119.7,42.9,119.5"
						/>
					<path class="st42" d="M38.5,116.9c-7.9-5.2-21.5-17.1-24.1-39.3c4.1,26,21,37.1,27.4,41.3C40.8,118.3,39.5,117.6,38.5,116.9"/>
					<path class="st43" d="M38.5,116.9C19.3,104,16,86.6,14.7,80c1.7,7.3,5.5,24.2,24.9,37.6C39.3,117.4,38.8,117.1,38.5,116.9"/>
					<path class="st7" d="M73.8,122.4c0,0-1.7,0-8.4-1c3.1,0.3,6.4,0.4,9.6,0.1C74.6,121.6,74.1,121.9,73.8,122.4"/>
					<path class="st44" d="M34.4,113.9c-10-8-16.5-18.5-19.2-31.4c5.1,20.1,17.1,29.6,22.3,33.7C36.6,115.5,35.3,114.6,34.4,113.9"
						/>
					<path class="st45" d="M34.4,113.9c-13.4-11-16.9-23-18.7-28.8c2.1,6.4,5.9,18.2,19.5,29.5C35,114.4,34.7,114.1,34.4,113.9"/>
					<path class="st46" d="M30.6,110.6c-2.4-2.3-9.7-9.5-14-22.6c4.3,12.2,10.4,19,16.2,24.6C32.2,112,31.3,111.2,30.6,110.6"/>
					<path class="st8" d="M74.4,121.7c-0.4,0.1-1.1,0-1.5,0c-0.5,0-1.2,0-1.7,0c1.3,0,2.5-0.1,3.8-0.2
						C74.8,121.5,74.6,121.6,74.4,121.7"/>
					<path class="st47" d="M27.2,106.9c-4.8-5.8-6.9-9.7-9.4-15.6c1.7,3.9,5,11.2,12.5,18.9C29.4,109.2,28,107.9,27.2,106.9"/>
					<path class="st48" d="M24,102.9c-2-3-2-3-4.2-7c2.5,4.6,4.1,7.1,7.2,10.9C26.1,105.6,24.9,104.1,24,102.9"/>
				</g>
			</g>
			<g>
				<path class="st49" d="M62.3,4.9c36.4-3.2,68.8,24.1,72,60.7c3.3,36.7-23.8,69.1-60.2,72.3c-36.4,3.2-68.8-24.1-72-60.7
					C-1.2,40.6,25.8,8.1,62.3,4.9z M73,126c29.9-2.6,52.1-29.2,49.4-59.3c-2.7-30.1-29.2-52.4-59.1-49.8
					c-29.9,2.6-52,29.2-49.4,59.3C16.6,106.2,43.1,128.6,73,126"/>
			</g>
			<g class="st1">
				<defs>
					<path id="SVGID_21_" class="st1" d="M85.8,140c-2.8,0.5-6.4,1.2-9.2,1.4c-1.5,0.1-3.5,0.3-5.1,0.3c-2,0-4.6,0-6.6-0.2
						c-2.4-0.2-6-0.5-11.2-1.8c-3.5-0.8-7.1-2-10.5-3.4c-9.6-4-16.1-9.2-18.6-11.3c-2.7-2.3-5.3-4.8-7.7-7.6
						c-2.1-2.4-4.6-5.9-6.4-8.5c0,0-2.8-4.1-5.2-9.8C4,96,2.7,91.7,1.7,88.5c-1.2-4-2.3-12.4-2.2-17c0-1.7,0.1-3.9,0.2-5.6
						c0.1-1.7,0.4-3.9,0.6-5.5c0.8-5.2,1.9-8.9,2.5-10.7c1-3.3,2.4-6.7,4.1-10c2.4-4.8,4.7-8,5.5-9.3c5.1-7.2,11.5-13.4,18.9-18.4
						c5.1-3.4,9.9-5.5,10.8-5.9c1.3-0.6,3.1-1.3,4.5-1.8c2.5-0.8,5.9-1.8,8.5-2.4c2.9-0.6,6-1.1,9-1.4c-1.3,0.3-2.2,2.3-2,4.5
						C25.8,8.1-1.2,40.6,2.1,77.2c3.3,36.7,35.6,63.9,72,60.7c36.4-3.2,63.5-35.6,60.2-72.3C131.1,29,98.7,1.8,62.3,4.9
						c-0.2-2.2,0.7-4.2,2-4.5c38.6-3.4,72.9,25.5,76.3,64.4C143.8,100.6,119.8,132.5,85.8,140z"/>
				</defs>
				<clipPath id="SVGID_22_">
					<use xlink:href="#SVGID_21_"  style="overflow:visible;"/>
				</clipPath>
				<g class="st50">
					<path class="st20" d="M85.8,140c-7.5,1.4-23.3,4.3-42.6-3.7c-19.8-8.2-29.5-22.7-32.7-27.4C-2,90.2-6.7,57.6,12.4,30.4
						C27.6,8.7,48.4,3.5,55.3,1.8c2.9-0.6,6-1.1,9-1.4c-1.3,0.3-2.2,2.3-2,4.5C25.8,8.1-1.2,40.6,2.1,77.2
						c3.3,36.7,35.6,63.9,72,60.7c36.4-3.2,63.5-35.6,60.2-72.3C131.1,29,98.7,1.8,62.3,4.9c-0.2-2.2,0.7-4.2,2-4.5
						c38.6-3.4,72.9,25.5,76.3,64.4C143.8,100.6,119.8,132.5,85.8,140"/>
					<path class="st20" d="M62.3,4.6C62,4.9,61.4,4.8,61,4.8C61.4,4.8,61.9,4.7,62.3,4.6C25.8,8.1-1.2,40.6,2.1,77.2
						c3.3,36.7,35.6,63.9,72,60.7c36.4-3.2,63.5-35.6,60.2-72.3C131.1,29,98.7,1.8,62.3,4.9c1.6-0.1,3.8-0.3,5.4-0.5
						c43.1,0.2,80.2,43.1,62,92.9c13.9-33.4-1.3-58.4-6.3-65.2C99.6-0.5,62.5,4.4,62.3,4.6c-0.1-2.1,0.8-3.9,2-4.2
						c38.6-3.4,72.9,25.5,76.3,64.4c3.2,35.8-20.8,67.7-54.8,75.2c-1.5,0.3-3.4,0.6-4.9,0.9l-4.3,0.5l-5.1,0.3c-2,0-4.6-0.1-6.6-0.2
						l-5-0.6c-1.9-0.3-4.4-0.8-6.2-1.2l-4.9-1.4c-1.7-0.6-4-1.4-5.7-2.1l-4.6-2.1c-1.5-0.8-3.6-1.9-5.1-2.8l-4.3-2.8
						c-1.4-1-3.2-2.4-4.5-3.5l-3.9-3.5c-1.2-1.2-2.7-2.8-3.8-4.1l-3.4-4.1c-0.9-1.4-2.3-3.2-3.1-4.6L7.7,104c-0.7-1.5-1.7-3.5-2.4-5
						l-2-5.2c-0.5-1.6-1.2-3.7-1.6-5.4L0.6,83c-0.2-1.7-0.6-4-0.7-5.7l-0.3-5.7c0.1-1.7,0.1-4,0.2-5.7l0.6-5.5
						c0.3-1.7,0.7-3.9,1.1-5.5l1.4-5.2c0.6-1.6,1.3-3.7,1.9-5.3l2.2-4.8c0.8-1.5,1.9-3.5,2.7-5l2.8-4.3c1.1-1.4,2.4-3.3,3.5-4.6
						l3.3-3.7c1.3-1.2,3-2.9,4.3-4.1l3.8-3.1c1.5-1.1,3.5-2.5,5-3.5l4.2-2.5c1.7-0.8,3.9-2,5.7-2.8l4.5-1.8c2.5-0.8,5.9-1.8,8.5-2.4
						c2.9-0.6,6-1.1,9-1.4C63,0.7,62.2,2.6,62.3,4.6"/>
					<path class="st21" d="M62.3,4.6c-0.7,0.9-2.6,0.4-3.7,0.5c1.1-0.1,2.6-0.2,3.8-0.3C25.8,8.1-1.2,40.6,2.1,77.2
						c3.3,36.7,35.6,63.9,72,60.7c36.4-3.2,63.5-35.6,60.2-72.3C131.1,29,98.7,1.8,62.3,4.9c1.6-0.1,3.8-0.3,5.4-0.4
						c45.2,0.2,82.6,45.7,60.3,96.6c13.4-26.4,6.8-52.5-3.8-68.1C101.3-0.5,62.5,4.3,62.3,4.6c-0.1-2.1,0.8-3.9,2-4.1
						c38.6-3.4,72.9,25.5,76.3,64.4c3.2,35.8-20.8,67.7-54.8,75.2c-1.5,0.3-3.4,0.6-4.9,0.9l-4.3,0.5l-5.1,0.3c-2,0-4.6-0.1-6.6-0.2
						l-5-0.6c-1.9-0.3-4.4-0.8-6.2-1.2l-4.9-1.4c-1.7-0.6-4-1.4-5.7-2.1l-4.6-2.1c-1.5-0.8-3.6-1.9-5.1-2.8l-4.3-2.8
						c-1.4-1-3.2-2.4-4.5-3.5l-3.9-3.5c-1.2-1.2-2.7-2.8-3.8-4.1l-3.4-4.1c-0.9-1.4-2.3-3.2-3.1-4.6L7.7,104c-0.7-1.5-1.7-3.5-2.4-5
						l-2-5.2c-0.5-1.6-1.2-3.7-1.6-5.4L0.6,83c-0.2-1.7-0.6-4-0.7-5.7l-0.3-5.7c0.1-1.7,0.1-4,0.2-5.7l0.6-5.5
						c0.3-1.7,0.7-3.9,1.1-5.5l1.4-5.2c0.6-1.6,1.3-3.7,1.9-5.3l2.2-4.8c0.8-1.5,1.9-3.5,2.7-5l2.8-4.3c1.1-1.4,2.4-3.3,3.5-4.6
						l3.3-3.7c1.3-1.2,3-2.9,4.3-4.1l3.8-3.1c1.5-1.1,3.5-2.5,5-3.5l4.2-2.5c1.7-0.8,3.9-2,5.7-2.8l4.5-1.8c2.5-0.8,5.9-1.8,8.5-2.4
						c2.9-0.6,6-1.1,9-1.4C63.1,0.7,62.2,2.5,62.3,4.6"/>
					<path class="st22" d="M62.3,4.5c-1.2,1.4-4.3,0.6-6.2,1c1.9-0.2,4.3-0.5,6.2-0.6C25.8,8.1-1.2,40.6,2.1,77.2
						c3.3,36.7,35.6,63.9,72,60.7c36.4-3.2,63.5-35.6,60.2-72.3C131.1,29,98.7,1.8,62.3,4.9c0,0,0,0,0,0
						c54.4-2.5,88.9,51.8,63.6,100.3c17.1-30.6,8.6-56.2-1.5-72.2C104.8,2,63.4,3.2,62.3,4.5c0-2,0.8-3.8,2-4.1
						c38.6-3.4,72.9,25.5,76.3,64.4c3.2,35.8-20.8,67.7-54.8,75.2c-1.5,0.3-3.4,0.6-4.9,0.9l-4.3,0.5l-5.1,0.3c-2,0-4.6-0.1-6.6-0.2
						l-5-0.6c-1.9-0.3-4.4-0.8-6.2-1.2l-4.9-1.4c-1.7-0.6-4-1.4-5.7-2.1l-4.6-2.1c-1.5-0.8-3.6-1.9-5.1-2.8l-4.3-2.8
						c-1.4-1-3.2-2.4-4.5-3.5l-3.9-3.5c-1.2-1.2-2.7-2.8-3.8-4.1l-3.4-4.1c-0.9-1.4-2.3-3.2-3.1-4.6L7.7,104c-0.7-1.5-1.7-3.5-2.4-5
						l-2-5.2c-0.5-1.6-1.2-3.7-1.6-5.4L0.6,83c-0.2-1.7-0.6-4-0.7-5.7l-0.3-5.7c0.1-1.7,0.1-4,0.2-5.7l0.6-5.5
						c0.3-1.7,0.7-3.9,1.1-5.5l1.4-5.2c0.6-1.6,1.3-3.7,1.9-5.3l2.2-4.8c0.8-1.5,1.9-3.5,2.7-5l2.8-4.3c1.1-1.4,2.4-3.3,3.5-4.6
						l3.3-3.7c1.3-1.2,3-2.9,4.3-4.1l3.8-3.1c1.5-1.1,3.5-2.5,5-3.5l4.2-2.5c1.7-0.8,3.9-2,5.7-2.8l4.5-1.8c2.5-0.8,5.9-1.8,8.5-2.4
						c2.9-0.6,6-1.1,9-1.4C63.1,0.7,62.2,2.5,62.3,4.5"/>
					<path class="st23" d="M62.3,4.4c-1,1.2-3.6,0.5-5.1,0.8c-9,1.3-26.4,6.5-42.1,26.1c-5.7,7.2-15,22.9-12.8,48.1
						c3.1,34.8,36.6,62.2,71.8,58.6c59.4-6.1,83.4-80.3,38.3-118.4C89.5,0.2,62.4,4.3,62.3,4.4c0-2,0.8-3.7,2-4
						c38.6-3.4,72.9,25.5,76.3,64.4c3.2,35.8-20.8,67.7-54.8,75.2c-1.5,0.3-3.4,0.6-4.9,0.9l-4.3,0.5l-5.1,0.3c-2,0-4.6-0.1-6.6-0.2
						l-5-0.6c-1.9-0.3-4.4-0.8-6.2-1.2l-4.9-1.4c-1.7-0.6-4-1.4-5.7-2.1l-4.6-2.1c-1.5-0.8-3.6-1.9-5.1-2.8l-4.3-2.8
						c-1.4-1-3.2-2.4-4.5-3.5l-3.9-3.5c-1.2-1.2-2.7-2.8-3.8-4.1l-3.4-4.1c-0.9-1.4-2.3-3.2-3.1-4.6L7.7,104c-0.7-1.5-1.7-3.5-2.4-5
						l-2-5.2c-0.5-1.6-1.2-3.7-1.6-5.4L0.6,83c-0.2-1.7-0.6-4-0.7-5.7l-0.3-5.7c0.1-1.7,0.1-4,0.2-5.7l0.6-5.5
						c0.3-1.7,0.7-3.9,1.1-5.5l1.4-5.2c0.6-1.6,1.3-3.7,1.9-5.3l2.2-4.8c0.8-1.5,1.9-3.5,2.7-5l2.8-4.3c1.1-1.4,2.4-3.3,3.5-4.6
						l3.3-3.7c1.3-1.2,3-2.9,4.3-4.1l3.8-3.1c1.5-1.1,3.5-2.5,5-3.5l4.2-2.5c1.7-0.8,3.9-2,5.7-2.8l4.5-1.8c2.5-0.8,5.9-1.8,8.5-2.4
						c2.9-0.6,6-1.1,9-1.4C63.1,0.7,62.2,2.5,62.3,4.4"/>
					<path class="st24" d="M62.3,4.4c-0.4,0.4-1.3,0.1-1.8,0.2C44.8,6.4,29,14.9,18.2,27.3C0.3,47.9,1.6,71.3,1.8,73.9
						c3.5,44.4,38.5,65.9,71.1,64.2c56.7-3,84.3-77.7,42.8-115.8C91.2-0.3,62.4,4.2,62.3,4.4c0-2,0.8-3.7,2-3.9
						c38.6-3.4,72.9,25.5,76.3,64.4c3.2,35.8-20.8,67.7-54.8,75.2c-1.5,0.3-3.4,0.6-4.9,0.9l-4.3,0.5l-5.1,0.3c-2,0-4.6-0.1-6.6-0.2
						l-5-0.6c-1.9-0.3-4.4-0.8-6.2-1.2l-4.9-1.4c-1.7-0.6-4-1.4-5.7-2.1l-4.6-2.1c-1.5-0.8-3.6-1.9-5.1-2.8l-4.3-2.8
						c-1.4-1-3.2-2.4-4.5-3.5l-3.9-3.5c-1.2-1.2-2.7-2.8-3.8-4.1l-3.4-4.1c-0.9-1.4-2.3-3.2-3.1-4.6L7.7,104c-0.7-1.5-1.7-3.5-2.4-5
						l-2-5.2c-0.5-1.6-1.2-3.7-1.6-5.4L0.6,83c-0.2-1.7-0.6-4-0.7-5.7l-0.3-5.7c0.1-1.7,0.1-4,0.2-5.7l0.6-5.5
						c0.3-1.7,0.7-3.9,1.1-5.5l1.4-5.2c0.6-1.6,1.3-3.7,1.9-5.3l2.2-4.8c0.8-1.5,1.9-3.5,2.7-5l2.8-4.3c1.1-1.4,2.4-3.3,3.5-4.6
						l3.3-3.7c1.3-1.2,3-2.9,4.3-4.1l3.8-3.1c1.5-1.1,3.5-2.5,5-3.5l4.2-2.5c1.7-0.8,3.9-2,5.7-2.8l4.5-1.8c2.5-0.8,5.9-1.8,8.5-2.4
						c2.9-0.6,6-1.1,9-1.4C63.1,0.7,62.2,2.4,62.3,4.4"/>
					<path class="st25" d="M62.3,4.3c-1,1.2-3.7,0.5-5.2,0.8c-0.9,0.1-22.5,3.4-38.8,22.2C0.3,47.9,1.6,71.3,1.8,73.9
						c3.5,44.4,38.5,65.9,71.2,64.2c58.2-3.1,85.5-76.9,42.9-116.1C91.3-0.6,62.4,4.1,62.3,4.3c0-1.9,0.9-3.6,2-3.8
						c38.6-3.4,72.9,25.5,76.3,64.4c3.2,35.8-20.8,67.7-54.8,75.2c-1.5,0.3-3.4,0.6-4.9,0.9l-4.3,0.5l-5.1,0.3c-2,0-4.6-0.1-6.6-0.2
						l-5-0.6c-1.9-0.3-4.4-0.8-6.2-1.2l-4.9-1.4c-1.7-0.6-4-1.4-5.7-2.1l-4.6-2.1c-1.5-0.8-3.6-1.9-5.1-2.8l-4.3-2.8
						c-1.4-1-3.2-2.4-4.5-3.5l-3.9-3.5c-1.2-1.2-2.7-2.8-3.8-4.1l-3.4-4.1c-0.9-1.4-2.3-3.2-3.1-4.6L7.7,104c-0.7-1.5-1.7-3.5-2.4-5
						l-2-5.2c-0.5-1.6-1.2-3.7-1.6-5.4L0.6,83c-0.2-1.7-0.6-4-0.7-5.7l-0.3-5.7c0.1-1.7,0.1-4,0.2-5.7l0.6-5.5
						c0.3-1.7,0.7-3.9,1.1-5.5l1.4-5.2c0.6-1.6,1.3-3.7,1.9-5.3l2.2-4.8c0.8-1.5,1.9-3.5,2.7-5l2.8-4.3c1.1-1.4,2.4-3.3,3.5-4.6
						l3.3-3.7c1.3-1.2,3-2.9,4.3-4.1l3.8-3.1c1.5-1.1,3.5-2.5,5-3.5l4.2-2.5c1.7-0.8,3.9-2,5.7-2.8l4.5-1.8c2.5-0.8,5.9-1.8,8.5-2.4
						c2.9-0.6,6-1.1,9-1.4C63.1,0.7,62.3,2.4,62.3,4.3"/>
					<path class="st26" d="M62.3,4.2c-1.1,1.2-3.7,0.5-5.2,0.8c-0.9,0.1-22.5,3.4-38.9,22.3C0.2,47.9,1.5,71.3,1.8,73.9
						c3.5,44.5,38.5,66,71.2,64.2c57.4-3,85.3-78,43.2-116.3C91.5-0.6,62.4,4,62.3,4.2c0-1.9,0.9-3.5,2-3.7
						c38.6-3.4,72.9,25.5,76.3,64.4c3.2,35.8-20.8,67.7-54.8,75.2c-1.5,0.3-3.4,0.6-4.9,0.9l-4.3,0.5l-5.1,0.3c-2,0-4.6-0.1-6.6-0.2
						l-5-0.6c-1.9-0.3-4.4-0.8-6.2-1.2l-4.9-1.4c-1.7-0.6-4-1.4-5.7-2.1l-4.6-2.1c-1.5-0.8-3.6-1.9-5.1-2.8l-4.3-2.8
						c-1.4-1-3.2-2.4-4.5-3.5l-3.9-3.5c-1.2-1.2-2.7-2.8-3.8-4.1l-3.4-4.1c-0.9-1.4-2.3-3.2-3.1-4.6L7.7,104c-0.7-1.5-1.7-3.5-2.4-5
						l-2-5.2c-0.5-1.6-1.2-3.7-1.6-5.4L0.6,83c-0.2-1.7-0.6-4-0.7-5.7l-0.3-5.7c0.1-1.7,0.1-4,0.2-5.7l0.6-5.5
						c0.3-1.7,0.7-3.9,1.1-5.5l1.4-5.2c0.6-1.6,1.3-3.7,1.9-5.3l2.2-4.8c0.8-1.5,1.9-3.5,2.7-5l2.8-4.3c1.1-1.4,2.4-3.3,3.5-4.6
						l3.3-3.7c1.3-1.2,3-2.9,4.3-4.1l3.8-3.1c1.5-1.1,3.5-2.5,5-3.5l4.2-2.5c1.7-0.8,3.9-2,5.7-2.8l4.5-1.8c2.5-0.8,5.9-1.8,8.5-2.4
						c2.9-0.6,6-1.1,9-1.4C63.1,0.7,62.3,2.3,62.3,4.2"/>
					<path class="st27" d="M62.3,4.1c-0.5,0.6-1.8,0.2-2.5,0.3c-15.4,2-30.9,10.5-41.6,22.8C0.2,47.9,1.5,71.3,1.7,73.9
						c3.5,44.5,38.5,66,71.2,64.3c57.5-3,85.6-78.2,43.5-116.6C91.9-0.8,62.4,3.9,62.3,4.1c0.1-1.8,0.9-3.4,2-3.6
						c38.6-3.4,72.9,25.5,76.3,64.4c3.2,35.8-20.8,67.7-54.8,75.2c-1.5,0.3-3.4,0.6-4.9,0.9l-4.3,0.5l-5.1,0.3c-2,0-4.6-0.1-6.6-0.2
						l-5-0.6c-1.9-0.3-4.4-0.8-6.2-1.2l-4.9-1.4c-1.7-0.6-4-1.4-5.7-2.1l-4.6-2.1c-1.5-0.8-3.6-1.9-5.1-2.8l-4.3-2.8
						c-1.4-1-3.2-2.4-4.5-3.5l-3.9-3.5c-1.2-1.2-2.7-2.8-3.8-4.1l-3.4-4.1c-0.9-1.4-2.3-3.2-3.1-4.6L7.7,104c-0.7-1.5-1.7-3.5-2.4-5
						l-2-5.2c-0.5-1.6-1.2-3.7-1.6-5.4L0.6,83c-0.2-1.7-0.6-4-0.7-5.7l-0.3-5.7c0.1-1.7,0.1-4,0.2-5.7l0.6-5.5
						c0.3-1.7,0.7-3.9,1.1-5.5l1.4-5.2c0.6-1.6,1.3-3.7,1.9-5.3l2.2-4.8c0.8-1.5,1.9-3.5,2.7-5l2.8-4.3c1.1-1.4,2.4-3.3,3.5-4.6
						l3.3-3.7c1.3-1.2,3-2.9,4.3-4.1l3.8-3.1c1.5-1.1,3.5-2.5,5-3.5l4.2-2.5c1.7-0.8,3.9-2,5.7-2.8l4.5-1.8c2.5-0.8,5.9-1.8,8.5-2.4
						c2.9-0.6,6-1.1,9-1.4C63.2,0.7,62.3,2.2,62.3,4.1"/>
					<path class="st28" d="M62.3,4c-1,1.1-3.6,0.5-5.1,0.8c-2.3,0.3-23,3.9-39.1,22.5C0.2,47.8,1.5,71.3,1.7,73.9
						c3.5,44.5,38.5,66,71.2,64.3c58.3-3,86.6-78.4,43.9-116.9C92-1,62.4,3.8,62.3,4c0.1-1.8,0.9-3.3,2-3.5
						c38.6-3.4,72.9,25.5,76.3,64.4c3.2,35.8-20.8,67.7-54.8,75.2c-1.5,0.3-3.4,0.6-4.9,0.9l-4.3,0.5l-5.1,0.3c-2,0-4.6-0.1-6.6-0.2
						l-5-0.6c-1.9-0.3-4.4-0.8-6.2-1.2l-4.9-1.4c-1.7-0.6-4-1.4-5.7-2.1l-4.6-2.1c-1.5-0.8-3.6-1.9-5.1-2.8l-4.3-2.8
						c-1.4-1-3.2-2.4-4.5-3.5l-3.9-3.5c-1.2-1.2-2.7-2.8-3.8-4.1l-3.4-4.1c-0.9-1.4-2.3-3.2-3.1-4.6L7.7,104c-0.7-1.5-1.7-3.5-2.4-5
						l-2-5.2c-0.5-1.6-1.2-3.7-1.6-5.4L0.6,83c-0.2-1.7-0.6-4-0.7-5.7l-0.3-5.7c0.1-1.7,0.1-4,0.2-5.7l0.6-5.5
						c0.3-1.7,0.7-3.9,1.1-5.5l1.4-5.2c0.6-1.6,1.3-3.7,1.9-5.3l2.2-4.8c0.8-1.5,1.9-3.5,2.7-5l2.8-4.3c1.1-1.4,2.4-3.3,3.5-4.6
						l3.3-3.7c1.3-1.2,3-2.9,4.3-4.1l3.8-3.1c1.5-1.1,3.5-2.5,5-3.5l4.2-2.5c1.7-0.8,3.9-2,5.7-2.8l4.5-1.8c2.5-0.8,5.9-1.8,8.5-2.4
						c2.9-0.6,6-1.1,9-1.4C63.2,0.7,62.4,2.2,62.3,4"/>
					<path class="st29" d="M62.3,3.8c-0.2,0.2-0.6,0.1-0.8,0.1C38.8,6.7,24.5,19.7,18.1,27.1C2.9,44.7,1.3,64,1.7,73.9
						c1.6,39.9,35.4,64.6,65.8,64.5c61-0.1,93.3-74.1,50.9-116.3C96.1-0.2,63.1,3,62.3,3.8c0.1-1.7,0.9-3.2,2-3.4
						c38.6-3.4,72.9,25.5,76.3,64.4c3.2,35.8-20.8,67.7-54.8,75.2c-1.5,0.3-3.4,0.6-4.9,0.9l-4.3,0.5l-5.1,0.3c-2,0-4.6-0.1-6.6-0.2
						l-5-0.6c-1.9-0.3-4.4-0.8-6.2-1.2l-4.9-1.4c-1.7-0.6-4-1.4-5.7-2.1l-4.6-2.1c-1.5-0.8-3.6-1.9-5.1-2.8l-4.3-2.8
						c-1.4-1-3.2-2.4-4.5-3.5l-3.9-3.5c-1.2-1.2-2.7-2.8-3.8-4.1l-3.4-4.1c-0.9-1.4-2.3-3.2-3.1-4.6L7.7,104c-0.7-1.5-1.7-3.5-2.4-5
						l-2-5.2c-0.5-1.6-1.2-3.7-1.6-5.4L0.6,83c-0.2-1.7-0.6-4-0.7-5.7l-0.3-5.7c0.1-1.7,0.1-4,0.2-5.7l0.6-5.5
						c0.3-1.7,0.7-3.9,1.1-5.5l1.4-5.2c0.6-1.6,1.3-3.7,1.9-5.3l2.2-4.8c0.8-1.5,1.9-3.5,2.7-5l2.8-4.3c1.1-1.4,2.4-3.3,3.5-4.6
						l3.3-3.7c1.3-1.2,3-2.9,4.3-4.1l3.8-3.1c1.5-1.1,3.5-2.5,5-3.5l4.2-2.5c1.7-0.8,3.9-2,5.7-2.8l4.5-1.8c2.5-0.8,5.9-1.8,8.5-2.4
						c2.9-0.6,6-1.1,9-1.4C63.2,0.7,62.4,2.1,62.3,3.8"/>
					<path class="st30" d="M62.3,3.7L62.3,3.7c-67.9,10.3-78.7,89.5-31.5,123c49,34.8,116.2-10.8,105.7-71.7
						C130.8,21.7,99.6,0.1,62.3,3.7c0.2-1.7,1-3,2-3.3c38.6-3.4,72.9,25.5,76.3,64.4c3.2,35.8-20.8,67.7-54.8,75.2
						c-1.5,0.3-3.4,0.6-4.9,0.9l-4.3,0.5l-5.1,0.3c-2,0-4.6-0.1-6.6-0.2l-5-0.6c-1.9-0.3-4.4-0.8-6.2-1.2l-4.9-1.4
						c-1.7-0.6-4-1.4-5.7-2.1l-4.6-2.1c-1.5-0.8-3.6-1.9-5.1-2.8l-4.3-2.8c-1.4-1-3.2-2.4-4.5-3.5l-3.9-3.5
						c-1.2-1.2-2.7-2.8-3.8-4.1l-3.4-4.1c-0.9-1.4-2.3-3.2-3.1-4.6L7.7,104c-0.7-1.5-1.7-3.5-2.4-5l-2-5.2c-0.5-1.6-1.2-3.7-1.6-5.4
						L0.6,83c-0.2-1.7-0.6-4-0.7-5.7l-0.3-5.7c0.1-1.7,0.1-4,0.2-5.7l0.6-5.5c0.3-1.7,0.7-3.9,1.1-5.5l1.4-5.2
						c0.6-1.6,1.3-3.7,1.9-5.3l2.2-4.8c0.8-1.5,1.9-3.5,2.7-5l2.8-4.3c1.1-1.4,2.4-3.3,3.5-4.6l3.3-3.7c1.3-1.2,3-2.9,4.3-4.1
						l3.8-3.1c1.5-1.1,3.5-2.5,5-3.5l4.2-2.5c1.7-0.8,3.9-2,5.7-2.8l4.5-1.8c2.5-0.8,5.9-1.8,8.5-2.4c2.9-0.6,6-1.1,9-1.4
						C63.2,0.7,62.4,2,62.3,3.7"/>
					<path class="st31" d="M62.3,3.6c-0.4,0.4-1.2,0.2-1.7,0.2C44.4,6,28.8,14.5,18,27.1c-11.2,13-17,29.6-16.4,46.8
						c1.5,39.9,35.4,64.6,65.9,64.6c60.5,0,93.9-75.7,51.7-117.3C97.5-0.3,63.1,2.7,62.3,3.6c0.2-1.6,1-2.9,2-3.1
						c38.6-3.4,72.9,25.5,76.3,64.4c3.2,35.8-20.8,67.7-54.8,75.2c-1.5,0.3-3.4,0.6-4.9,0.9l-4.3,0.5l-5.1,0.3c-2,0-4.6-0.1-6.6-0.2
						l-5-0.6c-1.9-0.3-4.4-0.8-6.2-1.2l-4.9-1.4c-1.7-0.6-4-1.4-5.7-2.1l-4.6-2.1c-1.5-0.8-3.6-1.9-5.1-2.8l-4.3-2.8
						c-1.4-1-3.2-2.4-4.5-3.5l-3.9-3.5c-1.2-1.2-2.7-2.8-3.8-4.1l-3.4-4.1c-0.9-1.4-2.3-3.2-3.1-4.6L7.7,104c-0.7-1.5-1.7-3.5-2.4-5
						l-2-5.2c-0.5-1.6-1.2-3.7-1.6-5.4L0.6,83c-0.2-1.7-0.6-4-0.7-5.7l-0.3-5.7c0.1-1.7,0.1-4,0.2-5.7l0.6-5.5
						c0.3-1.7,0.7-3.9,1.1-5.5l1.4-5.2c0.6-1.6,1.3-3.7,1.9-5.3l2.2-4.8c0.8-1.5,1.9-3.5,2.7-5l2.8-4.3c1.1-1.4,2.4-3.3,3.5-4.6
						l3.3-3.7c1.3-1.2,3-2.9,4.3-4.1l3.8-3.1c1.5-1.1,3.5-2.5,5-3.5l4.2-2.5c1.7-0.8,3.9-2,5.7-2.8l4.5-1.8c2.5-0.8,5.9-1.8,8.5-2.4
						c2.9-0.6,6-1.1,9-1.4C63.3,0.7,62.5,2,62.3,3.6"/>
					<path class="st14" d="M62.3,3.4c-1,1-3.2,0.5-4.6,0.7C47,5.8,30.3,12.7,18.2,26.7C3.6,43.6,1.1,61.7,1.6,73.9
						c1.5,39.9,35.4,64.6,65.9,64.6c59.5,0,94.1-75,53.7-116.3C97.1-2.4,62.5,3.2,62.3,3.4c0.2-1.5,1-2.7,2-2.9
						c38.6-3.4,72.9,25.5,76.3,64.4c3.2,35.8-20.8,67.7-54.8,75.2c-1.5,0.3-3.4,0.6-4.9,0.9l-4.3,0.5l-5.1,0.3c-2,0-4.6-0.1-6.6-0.2
						l-5-0.6c-1.9-0.3-4.4-0.8-6.2-1.2l-4.9-1.4c-1.7-0.6-4-1.4-5.7-2.1l-4.6-2.1c-1.5-0.8-3.6-1.9-5.1-2.8l-4.3-2.8
						c-1.4-1-3.2-2.4-4.5-3.5l-3.9-3.5c-1.2-1.2-2.7-2.8-3.8-4.1l-3.4-4.1c-0.9-1.4-2.3-3.2-3.1-4.6L7.7,104c-0.7-1.5-1.7-3.5-2.4-5
						l-2-5.2c-0.5-1.6-1.2-3.7-1.6-5.4L0.6,83c-0.2-1.7-0.6-4-0.7-5.7l-0.3-5.7c0.1-1.7,0.1-4,0.2-5.7l0.6-5.5
						c0.3-1.7,0.7-3.9,1.1-5.5l1.4-5.2c0.6-1.6,1.3-3.7,1.9-5.3l2.2-4.8c0.8-1.5,1.9-3.5,2.7-5l2.8-4.3c1.1-1.4,2.4-3.3,3.5-4.6
						l3.3-3.7c1.3-1.2,3-2.9,4.3-4.1l3.8-3.1c1.5-1.1,3.5-2.5,5-3.5l4.2-2.5c1.7-0.8,3.9-2,5.7-2.8l4.5-1.8c2.5-0.8,5.9-1.8,8.5-2.4
						c2.9-0.6,6-1.1,9-1.4C63.3,0.7,62.6,1.9,62.3,3.4"/>
					<path class="st3" d="M62.4,3.1c-0.9,0.9-3,0.5-4.3,0.7C54.1,4.5,33.7,8.6,17.9,27C2.8,44.6,1.2,63.9,1.5,73.9
						c1.5,40,35.4,64.7,66,64.7c50.3,0,79.5-48.7,70-89.1c1.6,4.9,2.6,10,3.1,15.3c3.2,35.8-20.8,67.7-54.8,75.2
						c-1.5,0.3-3.4,0.6-4.9,0.9l-4.3,0.5l-5.1,0.3c-2,0-4.6-0.1-6.6-0.2l-5-0.6c-1.9-0.3-4.4-0.8-6.2-1.2l-4.9-1.4
						c-1.7-0.6-4-1.4-5.7-2.1l-4.6-2.1c-1.5-0.8-3.6-1.9-5.1-2.8l-4.3-2.8c-1.4-1-3.2-2.4-4.5-3.5l-3.9-3.5
						c-1.2-1.2-2.7-2.8-3.8-4.1l-3.4-4.1c-0.9-1.4-2.3-3.2-3.1-4.6L7.7,104c-0.7-1.5-1.7-3.5-2.4-5l-2-5.2c-0.5-1.6-1.2-3.7-1.6-5.4
						L0.6,83c-0.2-1.7-0.6-4-0.7-5.7l-0.3-5.7c0.1-1.7,0.1-4,0.2-5.7l0.6-5.5c0.3-1.7,0.7-3.9,1.1-5.5l1.4-5.2
						c0.6-1.6,1.3-3.7,1.9-5.3l2.2-4.8c0.8-1.5,1.9-3.5,2.7-5l2.8-4.3c1.1-1.4,2.4-3.3,3.5-4.6l3.3-3.7c1.3-1.2,3-2.9,4.3-4.1
						l3.8-3.1c1.5-1.1,3.5-2.5,5-3.5l4.2-2.5c1.7-0.8,3.9-2,5.7-2.8l4.5-1.8c2.5-0.8,5.9-1.8,8.5-2.4c2.9-0.6,6-1.1,9-1.4
						C63.4,0.6,62.6,1.7,62.4,3.1"/>
					<path class="st4" d="M62.4,2.9c-0.9,0.9-2.9,0.5-4.2,0.7C46.9,5.5,30.5,12.4,18.6,26C3,43.9,1.2,63,1.5,72.7
						c1,35.8,28.9,64.1,64.9,65.8c44.3,2.2,76.6-41.1,73.7-78.3c0.2,1.5,0.4,3,0.5,4.5c3.2,35.8-20.8,67.7-54.8,75.2
						c-1.5,0.3-3.4,0.6-4.9,0.9l-4.3,0.5l-5.1,0.3c-2,0-4.6-0.1-6.6-0.2l-5-0.6c-1.9-0.3-4.4-0.8-6.2-1.2l-4.9-1.4
						c-1.7-0.6-4-1.4-5.7-2.1l-4.6-2.1c-1.5-0.8-3.6-1.9-5.1-2.8l-4.3-2.8c-1.4-1-3.2-2.4-4.5-3.5l-3.9-3.5
						c-1.2-1.2-2.7-2.8-3.8-4.1l-3.4-4.1c-0.9-1.4-2.3-3.2-3.1-4.6L7.7,104c-0.7-1.5-1.7-3.5-2.4-5l-2-5.2c-0.5-1.6-1.2-3.7-1.6-5.4
						L0.6,83c-0.2-1.7-0.6-4-0.7-5.7l-0.3-5.7c0.1-1.7,0.1-4,0.2-5.7l0.6-5.5c0.3-1.7,0.7-3.9,1.1-5.5l1.4-5.2
						c0.6-1.6,1.3-3.7,1.9-5.3l2.2-4.8c0.8-1.5,1.9-3.5,2.7-5l2.8-4.3c1.1-1.4,2.4-3.3,3.5-4.6l3.3-3.7c1.3-1.2,3-2.9,4.3-4.1
						l3.8-3.1c1.5-1.1,3.5-2.5,5-3.5l4.2-2.5c1.7-0.8,3.9-2,5.7-2.8l4.5-1.8c2.5-0.8,5.9-1.8,8.5-2.4c2.9-0.6,6-1.1,9-1.4
						C63.4,0.6,62.7,1.6,62.4,2.9"/>
					<path class="st5" d="M62.5,2.5C62,2.9,61,2.7,60.3,2.9C44.2,5.6,29,14,18.6,26C3,43.9,1.1,63,1.4,72.7
						c1,35.8,28.9,64.1,65,65.9c40.6,2,71.9-34.9,74.5-69.2c0.8,33.9-22.5,63.4-55,70.6c-1.5,0.3-3.4,0.6-4.9,0.9l-4.3,0.5l-5.1,0.3
						c-2,0-4.6-0.1-6.6-0.2l-5-0.6c-1.9-0.3-4.4-0.8-6.2-1.2l-4.9-1.4c-1.7-0.6-4-1.4-5.7-2.1l-4.6-2.1c-1.5-0.8-3.6-1.9-5.1-2.8
						l-4.3-2.8c-1.4-1-3.2-2.4-4.5-3.5l-3.9-3.5c-1.2-1.2-2.7-2.8-3.8-4.1l-3.4-4.1c-0.9-1.4-2.3-3.2-3.1-4.6L7.7,104
						c-0.7-1.5-1.7-3.5-2.4-5l-2-5.2c-0.5-1.6-1.2-3.7-1.6-5.4L0.6,83c-0.2-1.7-0.6-4-0.7-5.7l-0.3-5.7c0.1-1.7,0.1-4,0.2-5.7
						l0.6-5.5c0.3-1.7,0.7-3.9,1.1-5.5l1.4-5.2c0.6-1.6,1.3-3.7,1.9-5.3l2.2-4.8c0.8-1.5,1.9-3.5,2.7-5l2.8-4.3
						c1.1-1.4,2.4-3.3,3.5-4.6l3.3-3.7c1.3-1.2,3-2.9,4.3-4.1l3.8-3.1c1.5-1.1,3.5-2.5,5-3.5l4.2-2.5c1.7-0.8,3.9-2,5.7-2.8l4.5-1.8
						c2.5-0.8,5.9-1.8,8.5-2.4c2.9-0.6,6-1.1,9-1.4C63.5,0.6,62.9,1.4,62.5,2.5"/>
					<path class="st6" d="M62.7,2c-0.6,0.5-1.7,0.3-2.4,0.4C44.4,5.3,28.8,14.1,18.6,25.8C1.7,45.3,1.5,64.5,1.4,72.7
						C1,105.1,28.3,135.1,61,138.3c50,4.9,75.2-38.8,79.6-60.7c-2.8,30.4-24.9,55.8-54.8,62.4c-1.5,0.3-3.4,0.6-4.9,0.9l-4.3,0.5
						l-5.1,0.3c-2,0-4.6-0.1-6.6-0.2l-5-0.6c-1.9-0.3-4.4-0.8-6.2-1.2l-4.9-1.4c-1.7-0.6-4-1.4-5.7-2.1l-4.6-2.1
						c-1.5-0.8-3.6-1.9-5.1-2.8l-4.3-2.8c-1.4-1-3.2-2.4-4.5-3.5l-3.9-3.5c-1.2-1.2-2.7-2.8-3.8-4.1l-3.4-4.1
						c-0.9-1.4-2.3-3.2-3.1-4.6L7.7,104c-0.7-1.5-1.7-3.5-2.4-5l-2-5.2c-0.5-1.6-1.2-3.7-1.6-5.4L0.6,83c-0.2-1.7-0.6-4-0.7-5.7
						l-0.3-5.7c0.1-1.7,0.1-4,0.2-5.7l0.6-5.5c0.3-1.7,0.7-3.9,1.1-5.5l1.4-5.2c0.6-1.6,1.3-3.7,1.9-5.3l2.2-4.8
						c0.8-1.5,1.9-3.5,2.7-5l2.8-4.3c1.1-1.4,2.4-3.3,3.5-4.6l3.3-3.7c1.3-1.2,3-2.9,4.3-4.1l3.8-3.1c1.5-1.1,3.5-2.5,5-3.5l4.2-2.5
						c1.7-0.8,3.9-2,5.7-2.8l4.5-1.8c2.5-0.8,5.9-1.8,8.5-2.4c2.9-0.6,6-1.1,9-1.4C63.6,0.6,63.1,1.2,62.7,2"/>
					<path class="st7" d="M63.1,1.4c-0.6,0.4-1.7,0.3-2.5,0.5c-15.9,3-30,11-42.1,23.9C14.9,29.7,2.8,44.2,1.4,67.3
						c-2,32.9,21.4,63.6,53.3,70c48.3,9.7,78-30.8,84.8-51.9c-5.5,26.8-26.4,48.6-53.6,54.6c-1.5,0.3-3.4,0.6-4.9,0.9l-4.3,0.5
						l-5.1,0.3c-2,0-4.6-0.1-6.6-0.2l-5-0.6c-1.9-0.3-4.4-0.8-6.2-1.2l-4.9-1.4c-1.7-0.6-4-1.4-5.7-2.1l-4.6-2.1
						c-1.5-0.8-3.6-1.9-5.1-2.8l-4.3-2.8c-1.4-1-3.2-2.4-4.5-3.5l-3.9-3.5c-1.2-1.2-2.7-2.8-3.8-4.1l-3.4-4.1
						c-0.9-1.4-2.3-3.2-3.1-4.6L7.7,104c-0.7-1.5-1.7-3.5-2.4-5l-2-5.2c-0.5-1.6-1.2-3.7-1.6-5.4L0.6,83c-0.2-1.7-0.6-4-0.7-5.7
						l-0.3-5.7c0.1-1.7,0.1-4,0.2-5.7l0.6-5.5c0.3-1.7,0.7-3.9,1.1-5.5l1.4-5.2c0.6-1.6,1.3-3.7,1.9-5.3l2.2-4.8
						c0.8-1.5,1.9-3.5,2.7-5l2.8-4.3c1.1-1.4,2.4-3.3,3.5-4.6l3.3-3.7c1.3-1.2,3-2.9,4.3-4.1l3.8-3.1c1.5-1.1,3.5-2.5,5-3.5l4.2-2.5
						c1.7-0.8,3.9-2,5.7-2.8l4.5-1.8c2.5-0.8,5.9-1.8,8.5-2.4c2.9-0.6,6-1.1,9-1.4C63.8,0.5,63.4,0.9,63.1,1.4"/>
					<path class="st8" d="M63.7,0.7C-0.8,10.9-21.5,90,30.7,127c38.7,27.5,89.1,4.4,106.7-33.8c-7.6,23.2-27,41.4-51.5,46.8
						c-1.5,0.3-3.4,0.6-4.9,0.9l-4.3,0.5l-5.1,0.3c-2,0-4.6-0.1-6.6-0.2l-5-0.6c-1.9-0.3-4.4-0.8-6.2-1.2l-4.9-1.4
						c-1.7-0.6-4-1.4-5.7-2.1l-4.6-2.1c-1.5-0.8-3.6-1.9-5.1-2.8l-4.3-2.8c-1.4-1-3.2-2.4-4.5-3.5l-3.9-3.5
						c-1.2-1.2-2.7-2.8-3.8-4.1l-3.4-4.1c-0.9-1.4-2.3-3.2-3.1-4.6L7.7,104c-0.7-1.5-1.7-3.5-2.4-5l-2-5.2c-0.5-1.6-1.2-3.7-1.6-5.4
						L0.6,83c-0.2-1.7-0.6-4-0.7-5.7l-0.3-5.7c0.1-1.7,0.1-4,0.2-5.7l0.6-5.5c0.3-1.7,0.7-3.9,1.1-5.5l1.4-5.2
						c0.6-1.6,1.3-3.7,1.9-5.3l2.2-4.8c0.8-1.5,1.9-3.5,2.7-5l2.8-4.3c1.1-1.4,2.4-3.3,3.5-4.6l3.3-3.7c1.3-1.2,3-2.9,4.3-4.1
						l3.8-3.1c1.5-1.1,3.5-2.5,5-3.5l4.2-2.5c1.7-0.8,3.9-2,5.7-2.8l4.5-1.8c2.5-0.8,5.9-1.8,8.5-2.4c2.9-0.6,6-1.1,9-1.4
						C64.1,0.5,63.9,0.6,63.7,0.7"/>
					<path class="st9" d="M59.1,1.1C-2,13-19.8,94.7,31.5,127.7c41,26.4,85.9,1.7,102.6-26.3c-9.1,19.2-26.7,33.8-48.3,38.6
						c-1.5,0.3-3.4,0.6-4.9,0.9l-4.3,0.5l-5.1,0.3c-2,0-4.6-0.1-6.6-0.2l-5-0.6c-1.9-0.3-4.4-0.8-6.2-1.2l-4.9-1.4
						c-1.7-0.6-4-1.4-5.7-2.1l-4.6-2.1c-1.5-0.8-3.6-1.9-5.1-2.8l-4.3-2.8c-1.4-1-3.2-2.4-4.5-3.5l-3.9-3.5
						c-1.2-1.2-2.7-2.8-3.8-4.1l-3.4-4.1c-0.9-1.4-2.3-3.2-3.1-4.6L7.7,104c-0.7-1.5-1.7-3.5-2.4-5l-2-5.2c-0.5-1.6-1.2-3.7-1.6-5.4
						L0.6,83c-0.2-1.7-0.6-4-0.7-5.7l-0.3-5.7c0.1-1.7,0.1-4,0.2-5.7l0.6-5.5c0.3-1.7,0.7-3.9,1.1-5.5l1.4-5.2
						c0.6-1.6,1.3-3.7,1.9-5.3l2.2-4.8c0.8-1.5,1.9-3.5,2.7-5l2.8-4.3c1.1-1.4,2.4-3.3,3.5-4.6l3.3-3.7c1.3-1.2,3-2.9,4.3-4.1
						l3.8-3.1c1.5-1.1,3.5-2.5,5-3.5l4.2-2.5c1.7-0.8,3.9-2,5.7-2.8l4.5-1.8c2.5-0.8,5.9-1.8,8.5-2.4c1.8-0.4,3.6-0.7,5.4-1
						C60.2,0.9,59.5,1,59.1,1.1"/>
					<path class="st10" d="M48.5,3.7c-55.4,19-69,101-7,129.6c32,14.8,68.8-0.5,87.2-22.4c-9.8,14.5-25,25.2-42.8,29.1
						c-1.5,0.3-3.4,0.6-4.9,0.9l-4.3,0.5l-5.1,0.3c-2,0-4.6-0.1-6.6-0.2l-5-0.6c-1.9-0.3-4.4-0.8-6.2-1.2l-4.9-1.4
						c-1.7-0.6-4-1.4-5.7-2.1l-4.6-2.1c-1.5-0.8-3.6-1.9-5.1-2.8l-4.3-2.8c-1.4-1-3.2-2.4-4.5-3.5l-3.9-3.5
						c-1.2-1.2-2.7-2.8-3.8-4.1l-3.4-4.1c-0.9-1.4-2.3-3.2-3.1-4.6L7.7,104c-0.7-1.5-1.7-3.5-2.4-5l-2-5.2c-0.5-1.6-1.2-3.7-1.6-5.4
						L0.6,83c-0.2-1.7-0.6-4-0.7-5.7l-0.3-5.7c0.1-1.7,0.1-4,0.2-5.7l0.6-5.5c0.3-1.7,0.7-3.9,1.1-5.5l1.4-5.2
						c0.6-1.6,1.3-3.7,1.9-5.3l2.2-4.8c0.8-1.5,1.9-3.5,2.7-5l2.8-4.3c1.1-1.4,2.4-3.3,3.5-4.6l3.3-3.7c1.3-1.2,3-2.9,4.3-4.1
						l3.8-3.1c1.5-1.1,3.5-2.5,5-3.5l4.2-2.5c1.7-0.8,3.9-2,5.7-2.8l4.5-1.8l2.1-0.7L48.5,3.7"/>
					<path class="st3" d="M109,11.9c-13.6-8-29.3-11-46.6-8.8c0.3-1.4,1-2.5,1.9-2.7C81.6-1.1,98,3.9,111.1,13.3
						C110.5,12.9,109.6,12.3,109,11.9"/>
					<path class="st32" d="M132.7,88.2c8.4-37-13.2-79.5-62.5-83.8c51.4,2.1,75.3,50.6,60.9,89.3C131.6,92.1,132.3,89.9,132.7,88.2"
						/>
					<path class="st4" d="M99.4,6.6C83.5,0.2,68.7,2.1,62.4,2.9c0.3-1.3,1-2.2,1.9-2.4c13.3-1.2,26.1,1.5,37.3,7.1c0,0,0,0,0,0
						C100.9,7.2,100,6.9,99.4,6.6"/>
					<path class="st33" d="M132.7,88.2C142.1,47.7,115.2,9.4,74,4.7c43.1,3.1,70.8,44,58.2,85.8C132.3,89.8,132.6,88.9,132.7,88.2"
						/>
					<path class="st34" d="M134,82c4.8-38-18.4-69.7-56.4-76.9c44.4,6.6,64.6,47.7,55.5,82.1C133.3,85.6,133.8,83.6,134,82"/>
					<path class="st35" d="M134,82c4.9-36.5-17.5-68.6-53.1-76.3c36.5,6.4,60.1,41.5,52.7,78.4C133.8,83.5,133.9,82.6,134,82"/>
					<path class="st5" d="M91.3,3.5c-11.5-3-21.9-2-28.8-1c0.3-1.1,1-1.9,1.8-2c10.1-0.9,20,0.4,29,3.6C92.7,3.9,91.9,3.6,91.3,3.5"
						/>
					<path class="st36" d="M134.7,75.6c1-33.2-18.4-59.7-50.6-69.2c39,9.7,54.9,45.7,50.1,74.7C134.3,79.4,134.6,77.2,134.7,75.6"/>
					<path class="st37" d="M134.7,75.6c1.2-31.4-17.9-58.9-47.6-68.3c26.5,7.3,51.3,34,47.5,70.9C134.6,77.4,134.7,76.3,134.7,75.6"
						/>
					<path class="st38" d="M134.7,69C133,40.9,116.6,18.7,90,8.2c35.7,12.6,46.4,44,44.8,67.1C134.8,73.4,134.9,70.9,134.7,69"/>
					<path class="st6" d="M84.7,1.7C79.6,0.9,73,0.3,62.7,2c0.4-0.8,0.9-1.4,1.6-1.6c7.3-0.6,14.4-0.1,21.2,1.4
						C85.3,1.8,84.9,1.7,84.7,1.7"/>
					<path class="st39" d="M134.8,69c-1.5-26.9-17.2-49.3-42-59.8c19.7,7.5,42.5,28.5,42.1,63.2C134.8,71.4,134.8,70,134.8,69"/>
					<path class="st40" d="M134.8,69c-1.2-18.3-9-43.3-39.3-58.6c36.2,16.7,39.3,49.5,39.4,59.2C134.8,69.4,134.8,69.2,134.8,69"/>
					<path class="st41" d="M134.2,62.3c-1.9-12.8-9.1-36.3-36.1-50.7c12.5,6.1,33.9,21.4,36.6,55C134.5,65.4,134.4,63.6,134.2,62.3"
						/>
					<path class="st42" d="M134.2,62.3c-5-31.6-26.4-44.9-33.5-49.3c25,14.5,32.1,35.6,33.7,50.7C134.3,63.3,134.3,62.8,134.2,62.3"
						/>
					<path class="st43" d="M133,55.9C130,44,122.5,27.2,103.3,14.6C128.5,30,132.6,53.2,134,60.8C133.7,59.3,133.3,57.3,133,55.9"/>
					<path class="st7" d="M76,0.5c-4.8-0.1-8,0.1-12.9,0.9c0.3-0.5,0.8-0.8,1.2-0.9c4.6-0.4,9-0.3,13.4,0.1
						C77.2,0.5,76.5,0.5,76,0.5"/>
					<path class="st44" d="M133,55.9c-6.1-23.7-20.7-34.8-27-39.5c6.1,4.4,22.3,16,27.4,41.4C133.3,57.2,133.1,56.4,133,55.9"/>
					<path class="st45" d="M131.2,49.6c-4.3-12.3-11.8-22.8-22.4-31.3c17.4,13.2,22,29.3,23.9,36.1
						C132.2,53.1,131.7,51.1,131.2,49.6"/>
					<path class="st46" d="M131.2,49.6c-5.2-14.3-12.4-22.3-19.5-28.8c6.8,6,15.2,14.9,20,30.3C131.5,50.7,131.3,50.1,131.2,49.6"/>
					<path class="st8" d="M68,0.3c-1.8,0.1-2.2,0.2-4.3,0.5c0.2-0.1,0.4-0.2,0.6-0.3c1.8-0.2,3.6-0.2,5.3-0.3
						C69.1,0.2,68.5,0.2,68,0.3"/>
					<path class="st47" d="M128.8,43.7c-4.7-10.1-10.2-16.3-14-20c6.9,7.2,11,12.5,15.4,23.3C129.8,46,129.2,44.7,128.8,43.7"/>
					<path class="st48" d="M125.9,38.1c-1.2-2.1-3.1-5.3-7.1-10.1c4.3,5.4,5.4,6.7,8.9,13.4C127.2,40.4,126.5,39.1,125.9,38.1"/>
				</g>
			</g>
		</g>
	</g>
</g>
</svg>
