<svg id="Layer_1" data-name="Layer 1" xmlns="http://www.w3.org/2000/svg" viewBox="0 0 536.75 580.89"><defs><style>.cls-1{fill:#795448;}.cls-2{fill:#c78d74;}.cls-3{fill:#eab5a0;}.cls-4{fill:#fbc456;}.cls-5{fill:#f39759;}.cls-6{fill:#010202;}.cls-7{fill:#f29b9e;}.cls-8{fill:#a9674d;}</style></defs><title>cat</title><path class="cls-1" d="M73.34,487.67c-.65,3.17-5.47.55-7-2.33-9.54-18.6-19.09-37.46-23.91-57.8s-4.54-42.6,5-61.19c12.38-24,38.15-38.58,52.18-61.7,19.64-32.35,9.68-79.23-21.42-100.8-11.52-8-25.88-12.72-39.7-10.36-7.66,1.32-15.68,5.63-17.74,13.12s2.6,15.28,8.46,20.37,13,8.6,18.56,14c13.08,12.83,14.37,34.1,8.3,51.4S38,324.09,26.72,338.53s-22.31,30-25.64,48c-3.61,19.54,2.32,39.67,10.85,57.61,23.07,48.53,68.53,88.1,121.78,95.33Z"/><path class="cls-1" d="M266.46,135.34c-.11-2.38-2.2-4.14-4.17-5.48-27.71-18.8-67.84-16.72-93.45,4.85,14.93,33.17,47.87,57.54,84,62.13Z"/><path class="cls-1" d="M424.51,97.28c2.39.08,4.3-1.87,5.79-3.74C451.17,67.36,452.17,27.19,432.63,0c-34.22,12.35-61.05,43.32-68.38,79Z"/><path class="cls-2" d="M87.25,536.11c12.54,27.54,28.09,44.95,59.47,44.78l44.9-.25c4.21,0,9.3-.57,11.12-4.36a30.52,30.52,0,0,0-9.41-12.56c13.08-4.3,20.49-17.61,28.73-28.63a65,65,0,0,1,11-11.37c6.64-5.28,14.65-9.07,21.65-6.13s6.92,9.49,4.84,16.42c-1.7,5.69-4.73,11.66-6.16,16.13-2.56,8-3.09,19.78,5.09,21.52,5.84,1.25,10.66-4.39,13.81-9.46,7.44-12,13.92-24.57,20.29-37.18A2666.66,2666.66,0,0,0,418,235.58l-99.48-13.69c-1.44,14.31-8.85,27.24-16.09,39.67-2.74,4.71-5.54,9.5-9.47,13.29C273,294.08,245.21,298,220,305c-13.92,3.91-28.76,4-42,10.37-13.64,6.59-28.44,12.84-41.39,20.91-27.91,17.38-49.6,44.48-61.53,75C59.21,452.13,69.67,497.49,87.25,536.11Z"/><path class="cls-3" d="M233.09,523.72c6.64-5.28,14.65-9.07,21.65-6.13s6.92,9.49,4.84,16.42a526.65,526.65,0,0,0,66.83-96.17c15-27.76,27.73-57.84,28.19-89.39.12-8.38-1.05-17.65-7.3-23.23-7.28-6.49-19.09-5.26-27.15.22s-13.22,14.22-17.94,22.76A729.09,729.09,0,0,0,233.09,523.72Z"/><path class="cls-1" d="M346.6,330.93c-26.88-2.17-52.06-14.87-73.2-31.63-14.14-11.22-17.19-39.42-.62-51.42,15.26-11,51.29.79,67.22,6.41s46.44,11.94,55.23,28c6.25,11.43.87,39-10.64,45.4C375.44,332.81,356.65,331.74,346.6,330.93Z"/><path class="cls-2" d="M509.76,241.53c21.42-28.8,33.94-66.91,22.91-101.06-12.1-37.46-49.1-61.41-86.35-74.14-28.15-9.62-58.27-14.64-87.79-11C310.62,61.26,265.64,92,246,136.1c-13.07,29.31-13.73,63.51-2.91,93.61,6.7,18.64,13.17,40,28.57,53.26,44,38,112.64,37.29,163.81,15.86C464.62,286.6,490.83,267,509.76,241.53Z"/><path class="cls-4" d="M407.81,315.44c10,2.87,20.08,9.28,22.87,19.34a9.19,9.19,0,0,1,.25,4.79,10.11,10.11,0,0,1-3.07,4.43c-6.52,6.18-15.28,9.68-24.18,11-7.22,1.07-14.88.73-21.4-2.54s-11.66-9.9-11.73-17.19C370.36,317.12,394.46,311.63,407.81,315.44Z"/><path class="cls-5" d="M408.05,326.09a52.54,52.54,0,0,1-.37,16.27c-.31,1.86-3.36,1.1-2.87-.79a46.79,46.79,0,0,0,1.16-15.2c-.08-1.17,1.91-1.47,2.08-.28Z"/><path class="cls-5" d="M418.19,337.77c-4.32.14-8.82-.84-13.11-1.39s-8.58-1.11-12.86-1.72c-2.29-.32-1.33-3.82,1-3.48,4.24.63,8.47,1.31,12.71,2s8.61,1,12.61,2.32a1.17,1.17,0,0,1-.31,2.28Z"/><path class="cls-6" d="M346.83,151.41a33.87,33.87,0,0,0-13.52,4,30.38,30.38,0,0,0-10.18,9.54c-5.65,8.45-7,19.25-5.66,29.16a2.57,2.57,0,1,1-5.08.69c-1.39-11.41.59-23.63,7.73-32.92,5.89-7.66,16.94-14.18,26.87-11.62.71.19.48,1.13-.16,1.2Z"/><path class="cls-6" d="M393,121c-.84-2.24-.16-5.12.41-7.36A38.32,38.32,0,0,1,405.86,94.3a38.87,38.87,0,0,1,30.8-8.13c2.93.47,1.67,4.89-1.23,4.45a35.71,35.71,0,0,0-27.27,7.19,36.85,36.85,0,0,0-8.9,10.55,39,39,0,0,0-2.83,6.42c-.72,2.07-1.08,4.54-2.28,6.38A.65.65,0,0,1,393,121Z"/><path class="cls-7" d="M441.21,162.33c5.51,5.83,11.23,12,13.11,19.82s-1.73,17.52-9.5,19.47c-5.94,1.49-11.9-1.83-17.12-5l-10.14-6.2A95.09,95.09,0,0,0,410,160.52a77.7,77.7,0,0,0,32.08,2.77c.88-.11,2.06-.07,2.32.79s-1.72.71-1.07.11Z"/><path class="cls-6" d="M407.17,149.6c3.16-.4,4.81,3.31,4.18,6a10,10,0,0,1-3.24,4.87c-1.43,1.29-3.12,2.77-5.05,3.21-4.54,1-6-4.71-6-8.11,0-3.88,1.78-7.87,5.36-9.65,3.35-1.67,7.7-1.46,10.43,1.29,3.27,3.29,2.67,8.22.83,12.06s-5.08,7.77-9.49,8c-3.64.23-6.45-2.57-7.49-5.85a9.54,9.54,0,0,1,3.55-10.64c3.91-2.88,9.06-2.89,13.62-2a3.32,3.32,0,0,1,2.29,4c-.77,3.22-1.93,6.54-4.73,8.54a8,8,0,0,1-8.14.8c-6-3.09-2.75-13.2,4-11.31a3.35,3.35,0,0,1,2.34,2.34,6.64,6.64,0,0,1-3.15,7.31c-2.93,1.69-6.54.69-7.1-2.91a5.44,5.44,0,0,1,10.69-2c.83,4.17-5.21,5.93-6.43,1.77.39,1.31,3,.22,2.27-1.1L403,154.58c1.13.1.05,0,.16.12s-.34-1.45,0,.29l2.34,2.33c.54.16.93-.26,1.22-.52-.54.48.24.38-.14,0-.78-.76,0-.35.63-.57,1.78-.63,2.25-3.58,2.63-5.12l2.28,4c-3.35-.69-10.58-.63-9.6,4.29.32,1.62,1.11,2.41,2.63,1.43a11.18,11.18,0,0,0,4.39-7,3,3,0,0,0-3.53-3.62c-2.72.31-4.11,2.84-4.25,5.36,0,.73-.07,3.59.68,4,.52.28,3-1.73,3.43-2.06,2.08-1.62,4-5.17,1.13-7.15a.41.41,0,0,1,.2-.75Z"/><path class="cls-6" d="M383,208.85c5.12,1.49,10,1.85,15.07,0A23.64,23.64,0,0,0,410,199.74c5.89-9,5.74-20.75,1.24-30.28-2.74-5.8-6.79-10.5-11.23-15.06-2.6-2.67,1.25-6.33,4-4,9.64,8,16.54,21,16.1,33.7-.41,12-7.21,24.2-19.33,27.66-5.73,1.64-13.14,1.45-18.08-2.26-.29-.22-.14-.75.27-.63Z"/><path class="cls-6" d="M459.06,124.57c10,9,6.75,24-2.32,32.29-10.75,9.82-26.25,9.86-39.76,7.38-3.65-.67-7.59-1.61-10.27-4.39s-3.68-6.82-1.8-10.29a2.68,2.68,0,0,1,3.63-.95,2.72,2.72,0,0,1,.95,3.63c-.9,2.11,1.13,4.25,2.79,5.17,2.48,1.37,5.54,1.79,8.3,2.29a60.32,60.32,0,0,0,17.43.83c10.34-1.19,20.72-7.45,23.8-17.92,1.86-6.35-.15-12.12-3.16-17.72a.26.26,0,0,1,.41-.32Z"/><path class="cls-8" d="M130.33,411.22c12.25-3.83,24.91,1.4,34.85,8.56a94.35,94.35,0,0,1,24.37,26.68c13.51,21.66,18.52,47.86,15.93,73.11a140.87,140.87,0,0,1-12,44.87l-.43-3.39c2.83,2.53,5.51,5.17,8.12,7.93,2.16,2.27-1,5.14-3.33,3.34-3-2.34-5.93-4.74-8.74-7.31a2.86,2.86,0,0,1-.44-3.39c5.68-11.82,10.24-24,12.44-37a114.48,114.48,0,0,0,.16-38.82c-4-22.71-15.22-44.35-32.6-59.66-10.34-9.1-23.88-16.54-38.1-14.15a.41.41,0,0,1-.22-.8Z"/><path class="cls-1" d="M478.92,106c4.43-3.28,6.51-9.74,9.66-14.25,3.7-5.29,8.41-9.46,12.48-14.39,5.65-6.82-3.27-16.22-9.87-9.87-5,4.82-8.81,11.72-11.74,18-2.46,5.26-6.67,12.73-5.21,18.63.45,1.84,3,3.13,4.68,1.91Z"/><path class="cls-1" d="M493.31,112.58c4.32-.88,8-4,11.87-6a92.26,92.26,0,0,1,13.25-5.69c8.22-2.82,3.22-15.08-4.66-11.05a99.64,99.64,0,0,0-13.55,8.26c-3.76,2.74-8.38,5.68-10.3,10.06-1.05,2.42.67,5,3.39,4.41Z"/><path class="cls-1" d="M332.64,223.11c-6.54,1-13.28,5.58-18.71,9.18a123.26,123.26,0,0,0-16.6,13.28c-5.77,5.49,3.49,14.61,8.69,8.69a111.65,111.65,0,0,1,14.27-13.74c5-4,11.24-6.91,15.91-11.3,2.9-2.74-.24-6.64-3.56-6.11Z"/><path class="cls-1" d="M346.2,235.74c-6.42,2.32-10.68,9.06-14.43,14.47a109.52,109.52,0,0,0-10.68,19.46c-3.84,9,8.76,14.43,12.43,5.24a143.94,143.94,0,0,1,8.54-17.69c2.95-5.18,8-10.65,9-16.58.48-2.71-1.77-6-4.9-4.9Z"/></svg>